<mxfile host="Electron" agent="Mozilla/5.0 (Windows NT 10.0; Win64; x64) AppleWebKit/537.36 (KHTML, like Gecko) draw.io/24.7.5 Chrome/126.0.6478.183 Electron/31.3.0 Safari/537.36" version="24.7.5">
  <diagram name="Page-1" id="Ie6zT4B1BSGbGUJqss4R">
    <mxGraphModel dx="1100" dy="3287" grid="1" gridSize="10" guides="1" tooltips="1" connect="1" arrows="1" fold="1" page="0" pageScale="1" pageWidth="850" pageHeight="1100" background="none" math="0" shadow="0">
      <root>
        <mxCell id="0" />
        <mxCell id="1" parent="0" />
        <mxCell id="EGReewrqneR2WTqJuPq--51" value="" style="edgeStyle=orthogonalEdgeStyle;rounded=0;orthogonalLoop=1;jettySize=auto;html=1;endArrow=none;endFill=0;exitX=0.005;exitY=0.995;exitDx=0;exitDy=0;exitPerimeter=0;strokeColor=#CC00CC;" parent="1" source="EGReewrqneR2WTqJuPq--1" target="EGReewrqneR2WTqJuPq--5" edge="1">
          <mxGeometry relative="1" as="geometry">
            <mxPoint x="2910" y="-630" as="sourcePoint" />
            <Array as="points">
              <mxPoint x="2981" y="30" />
              <mxPoint x="1970" y="30" />
            </Array>
          </mxGeometry>
        </mxCell>
        <mxCell id="EGReewrqneR2WTqJuPq--77" style="edgeStyle=orthogonalEdgeStyle;rounded=0;orthogonalLoop=1;jettySize=auto;html=1;entryX=0.5;entryY=0;entryDx=0;entryDy=0;endArrow=none;endFill=0;exitX=0.995;exitY=0.995;exitDx=0;exitDy=0;exitPerimeter=0;strokeColor=#CC6600;" parent="1" source="EGReewrqneR2WTqJuPq--1" target="EGReewrqneR2WTqJuPq--57" edge="1">
          <mxGeometry relative="1" as="geometry">
            <Array as="points">
              <mxPoint x="3070" y="30" />
              <mxPoint x="4140" y="30" />
            </Array>
          </mxGeometry>
        </mxCell>
        <mxCell id="EGReewrqneR2WTqJuPq--85" style="edgeStyle=orthogonalEdgeStyle;rounded=0;orthogonalLoop=1;jettySize=auto;html=1;entryX=0.5;entryY=0;entryDx=0;entryDy=0;endArrow=none;endFill=0;exitX=0.75;exitY=1;exitDx=0;exitDy=0;exitPerimeter=0;strokeColor=#CC6600;" parent="1" source="EGReewrqneR2WTqJuPq--1" target="EGReewrqneR2WTqJuPq--81" edge="1">
          <mxGeometry relative="1" as="geometry">
            <mxPoint x="3130" y="-600" as="sourcePoint" />
            <Array as="points">
              <mxPoint x="3048" y="140" />
              <mxPoint x="4880" y="140" />
            </Array>
          </mxGeometry>
        </mxCell>
        <mxCell id="EGReewrqneR2WTqJuPq--92" style="edgeStyle=orthogonalEdgeStyle;rounded=0;orthogonalLoop=1;jettySize=auto;html=1;endArrow=none;endFill=0;exitX=0.5;exitY=0;exitDx=0;exitDy=0;exitPerimeter=0;strokeColor=#67AB9F;" parent="1" source="EGReewrqneR2WTqJuPq--1" target="EGReewrqneR2WTqJuPq--91" edge="1">
          <mxGeometry relative="1" as="geometry">
            <Array as="points">
              <mxPoint x="3025" y="-1470" />
              <mxPoint x="3150" y="-1470" />
            </Array>
          </mxGeometry>
        </mxCell>
        <mxCell id="PJESGeksHoikqEn4IFh8-49" style="edgeStyle=orthogonalEdgeStyle;rounded=0;orthogonalLoop=1;jettySize=auto;html=1;entryX=0;entryY=0.5;entryDx=0;entryDy=0;fontFamily=Helvetica;fontSize=16;fontColor=default;exitX=1;exitY=0.5;exitDx=0;exitDy=0;exitPerimeter=0;endArrow=none;endFill=0;strokeColor=#FFCCFF;" parent="1" source="EGReewrqneR2WTqJuPq--1" target="EGReewrqneR2WTqJuPq--9" edge="1">
          <mxGeometry relative="1" as="geometry" />
        </mxCell>
        <mxCell id="PJESGeksHoikqEn4IFh8-50" style="edgeStyle=orthogonalEdgeStyle;rounded=0;orthogonalLoop=1;jettySize=auto;html=1;exitX=1;exitY=0.25;exitDx=0;exitDy=0;exitPerimeter=0;entryX=0;entryY=0.5;entryDx=0;entryDy=0;fontFamily=Helvetica;fontSize=16;fontColor=default;endArrow=none;endFill=0;strokeColor=#FFCCFF;" parent="1" source="EGReewrqneR2WTqJuPq--1" target="EGReewrqneR2WTqJuPq--8" edge="1">
          <mxGeometry relative="1" as="geometry" />
        </mxCell>
        <mxCell id="PJESGeksHoikqEn4IFh8-51" style="edgeStyle=orthogonalEdgeStyle;rounded=0;orthogonalLoop=1;jettySize=auto;html=1;exitX=0;exitY=0.5;exitDx=0;exitDy=0;exitPerimeter=0;entryX=1;entryY=0.5;entryDx=0;entryDy=0;fontFamily=Helvetica;fontSize=16;fontColor=default;endArrow=none;endFill=0;strokeColor=#A9C4EB;align=center;verticalAlign=middle;labelBackgroundColor=default;" parent="1" source="EGReewrqneR2WTqJuPq--1" target="EGReewrqneR2WTqJuPq--10" edge="1">
          <mxGeometry relative="1" as="geometry" />
        </mxCell>
        <mxCell id="PJESGeksHoikqEn4IFh8-52" style="edgeStyle=orthogonalEdgeStyle;rounded=0;orthogonalLoop=1;jettySize=auto;html=1;exitX=0;exitY=0.25;exitDx=0;exitDy=0;exitPerimeter=0;entryX=1;entryY=0.5;entryDx=0;entryDy=0;fontFamily=Helvetica;fontSize=16;fontColor=default;endArrow=none;endFill=0;strokeColor=#A9C4EB;" parent="1" source="EGReewrqneR2WTqJuPq--1" target="EGReewrqneR2WTqJuPq--56" edge="1">
          <mxGeometry relative="1" as="geometry" />
        </mxCell>
        <mxCell id="PJESGeksHoikqEn4IFh8-55" style="edgeStyle=orthogonalEdgeStyle;rounded=0;orthogonalLoop=1;jettySize=auto;html=1;exitX=0.25;exitY=0;exitDx=0;exitDy=0;exitPerimeter=0;entryX=0.5;entryY=1;entryDx=0;entryDy=0;fontFamily=Helvetica;fontSize=16;fontColor=default;endArrow=none;endFill=0;strokeColor=#67AB9F;" parent="1" source="EGReewrqneR2WTqJuPq--1" target="PJESGeksHoikqEn4IFh8-54" edge="1">
          <mxGeometry relative="1" as="geometry" />
        </mxCell>
        <mxCell id="PJESGeksHoikqEn4IFh8-57" style="edgeStyle=orthogonalEdgeStyle;rounded=0;orthogonalLoop=1;jettySize=auto;html=1;exitX=0.75;exitY=0;exitDx=0;exitDy=0;exitPerimeter=0;entryX=0.5;entryY=1;entryDx=0;entryDy=0;fontFamily=Helvetica;fontSize=16;fontColor=default;endArrow=none;endFill=0;strokeColor=#67AB9F;" parent="1" source="EGReewrqneR2WTqJuPq--1" target="PJESGeksHoikqEn4IFh8-56" edge="1">
          <mxGeometry relative="1" as="geometry" />
        </mxCell>
        <mxCell id="OgWKlECrtsOPi22Th0ey-8" style="edgeStyle=orthogonalEdgeStyle;rounded=0;orthogonalLoop=1;jettySize=auto;html=1;entryX=0.5;entryY=0;entryDx=0;entryDy=0;endArrow=none;endFill=0;strokeColor=#99004D;" parent="1" source="EGReewrqneR2WTqJuPq--1" target="OgWKlECrtsOPi22Th0ey-2" edge="1">
          <mxGeometry relative="1" as="geometry" />
        </mxCell>
        <mxCell id="OgWKlECrtsOPi22Th0ey-10" style="edgeStyle=orthogonalEdgeStyle;rounded=0;orthogonalLoop=1;jettySize=auto;html=1;entryX=0.5;entryY=1;entryDx=0;entryDy=0;exitX=0.5;exitY=0;exitDx=0;exitDy=0;exitPerimeter=0;strokeColor=#67AB9F;align=center;verticalAlign=middle;fontFamily=Helvetica;fontSize=11;fontColor=default;labelBackgroundColor=default;endArrow=none;endFill=0;" parent="1" source="EGReewrqneR2WTqJuPq--1" target="OgWKlECrtsOPi22Th0ey-9" edge="1">
          <mxGeometry relative="1" as="geometry">
            <Array as="points">
              <mxPoint x="3025" y="-1470" />
              <mxPoint x="2890" y="-1470" />
            </Array>
          </mxGeometry>
        </mxCell>
        <mxCell id="EGReewrqneR2WTqJuPq--1" value="" style="verticalLabelPosition=middle;sketch=0;html=1;verticalAlign=top;aspect=fixed;align=center;pointerEvents=1;shape=mxgraph.sitemap.user;fillColor=#0079D6;strokeColor=none;fontSize=12;direction=east;labelBackgroundColor=#ffffff;strokeWidth=2;shadow=0;dashed=0;whiteSpace=wrap;labelPosition=center;outlineConnect=0;spacingTop=-6;fontColor=#FFFFFF;bgIcon=ellipse;resIcon=mxgraph.cisco_safe.design.user;" parent="1" vertex="1">
          <mxGeometry x="2980" y="-850" width="90" height="90" as="geometry" />
        </mxCell>
        <mxCell id="HE2thZA_2mZJquEUhGNp-105" value="ref/comm/stream" style="text;html=1;align=center;verticalAlign=middle;whiteSpace=wrap;rounded=0;fontSize=44;fontColor=#99CCFF;" parent="1" vertex="1">
          <mxGeometry x="2420" y="-940" width="250" height="60" as="geometry" />
        </mxCell>
        <mxCell id="HE2thZA_2mZJquEUhGNp-106" value="core staffs" style="text;html=1;align=center;verticalAlign=middle;whiteSpace=wrap;rounded=0;fontSize=44;fontColor=#FFCCCC;" parent="1" vertex="1">
          <mxGeometry x="2420" y="-880" width="250" height="60" as="geometry" />
        </mxCell>
        <mxCell id="HE2thZA_2mZJquEUhGNp-107" value="players" style="text;html=1;align=center;verticalAlign=middle;whiteSpace=wrap;rounded=0;fontSize=44;fontColor=#FFFFCC;" parent="1" vertex="1">
          <mxGeometry x="2420" y="-820" width="250" height="60" as="geometry" />
        </mxCell>
        <mxCell id="EGReewrqneR2WTqJuPq--64" style="edgeStyle=orthogonalEdgeStyle;rounded=0;orthogonalLoop=1;jettySize=auto;html=1;entryX=1;entryY=0.5;entryDx=0;entryDy=0;endArrow=none;endFill=0;" parent="1" source="EGReewrqneR2WTqJuPq--56" target="EGReewrqneR2WTqJuPq--60" edge="1">
          <mxGeometry relative="1" as="geometry" />
        </mxCell>
        <mxCell id="EGReewrqneR2WTqJuPq--65" style="edgeStyle=orthogonalEdgeStyle;rounded=0;orthogonalLoop=1;jettySize=auto;html=1;entryX=1;entryY=0.5;entryDx=0;entryDy=0;endArrow=none;endFill=0;" parent="1" source="EGReewrqneR2WTqJuPq--56" target="EGReewrqneR2WTqJuPq--61" edge="1">
          <mxGeometry relative="1" as="geometry" />
        </mxCell>
        <mxCell id="EGReewrqneR2WTqJuPq--56" value="/staff" style="rounded=1;whiteSpace=wrap;html=1;fontSize=16;fillColor=#A9C4EB;fontColor=#000000;" parent="1" vertex="1">
          <mxGeometry x="2380" y="-1400" width="120" height="60" as="geometry" />
        </mxCell>
        <mxCell id="PJESGeksHoikqEn4IFh8-16" value="" style="edgeStyle=orthogonalEdgeStyle;rounded=0;orthogonalLoop=1;jettySize=auto;html=1;entryX=1;entryY=0.5;entryDx=0;entryDy=0;endArrow=none;endFill=0;" parent="1" source="EGReewrqneR2WTqJuPq--56" target="EGReewrqneR2WTqJuPq--62" edge="1">
          <mxGeometry relative="1" as="geometry">
            <mxPoint x="1880" y="-1680" as="sourcePoint" />
            <mxPoint x="1580" y="-1230" as="targetPoint" />
          </mxGeometry>
        </mxCell>
        <mxCell id="PJESGeksHoikqEn4IFh8-18" value="" style="edgeStyle=orthogonalEdgeStyle;rounded=0;orthogonalLoop=1;jettySize=auto;html=1;entryX=1;entryY=0.5;entryDx=0;entryDy=0;endArrow=none;endFill=0;" parent="1" source="EGReewrqneR2WTqJuPq--56" target="EGReewrqneR2WTqJuPq--63" edge="1">
          <mxGeometry relative="1" as="geometry">
            <mxPoint x="1880" y="-1680" as="sourcePoint" />
            <mxPoint x="1580" y="-1080" as="targetPoint" />
          </mxGeometry>
        </mxCell>
        <mxCell id="HE2thZA_2mZJquEUhGNp-209" value="only register for refs/comm/&lt;div style=&quot;font-size: 16px;&quot;&gt;stream&lt;/div&gt;" style="whiteSpace=wrap;html=1;shape=mxgraph.basic.document;fillColor=#e3c800;strokeColor=#B09500;fontColor=#000000;fontSize=16;" parent="1" vertex="1">
          <mxGeometry x="2090" y="-1450" width="85" height="90" as="geometry" />
        </mxCell>
        <mxCell id="HE2thZA_2mZJquEUhGNp-265" value="&lt;font style=&quot;font-size: 22px;&quot;&gt;DELETE /staff&lt;/font&gt;&lt;span style=&quot;font-size: 22px;&quot;&gt;/:id/:role&lt;/span&gt;" style="rounded=0;whiteSpace=wrap;html=1;fontSize=16;fillColor=#FFCCCC;fontColor=#000000;" parent="1" vertex="1">
          <mxGeometry x="1570" y="-1055" width="180" height="90" as="geometry" />
        </mxCell>
        <mxCell id="HE2thZA_2mZJquEUhGNp-293" style="edgeStyle=orthogonalEdgeStyle;rounded=0;orthogonalLoop=1;jettySize=auto;html=1;entryX=1;entryY=0.5;entryDx=0;entryDy=0;flowAnimation=1;strokeColor=#FFCCCC;" parent="1" source="HE2thZA_2mZJquEUhGNp-61" target="HE2thZA_2mZJquEUhGNp-265" edge="1">
          <mxGeometry relative="1" as="geometry" />
        </mxCell>
        <mxCell id="HE2thZA_2mZJquEUhGNp-97" style="edgeStyle=orthogonalEdgeStyle;rounded=0;orthogonalLoop=1;jettySize=auto;html=1;entryX=1;entryY=0.5;entryDx=0;entryDy=0;endArrow=none;endFill=0;" parent="1" source="EGReewrqneR2WTqJuPq--63" target="HE2thZA_2mZJquEUhGNp-61" edge="1">
          <mxGeometry relative="1" as="geometry" />
        </mxCell>
        <mxCell id="HE2thZA_2mZJquEUhGNp-61" value="Params" style="swimlane;fontStyle=0;childLayout=stackLayout;horizontal=1;startSize=30;horizontalStack=0;resizeParent=1;resizeParentMax=0;resizeLast=0;collapsible=1;marginBottom=0;whiteSpace=wrap;html=1;fontSize=16;" parent="1" vertex="1">
          <mxGeometry x="1880" y="-1040" width="140" height="60" as="geometry" />
        </mxCell>
        <mxCell id="HE2thZA_2mZJquEUhGNp-208" value="role: string" style="text;strokeColor=none;fillColor=none;align=left;verticalAlign=middle;spacingLeft=4;spacingRight=4;overflow=hidden;points=[[0,0.5],[1,0.5]];portConstraint=eastwest;rotatable=0;whiteSpace=wrap;html=1;fontSize=16;" parent="HE2thZA_2mZJquEUhGNp-61" vertex="1">
          <mxGeometry y="30" width="140" height="30" as="geometry" />
        </mxCell>
        <mxCell id="HE2thZA_2mZJquEUhGNp-266" value="&lt;font style=&quot;font-size: 22px;&quot;&gt;PUT /staff&lt;/font&gt;&lt;span style=&quot;font-size: 22px;&quot;&gt;/:id/:role&lt;/span&gt;" style="rounded=0;whiteSpace=wrap;html=1;fontSize=16;fillColor=#99FFFF;fontColor=#000000;strokeColor=default;align=center;verticalAlign=middle;fontFamily=Helvetica;" parent="1" vertex="1">
          <mxGeometry x="1570" y="-1295" width="180" height="90" as="geometry" />
        </mxCell>
        <mxCell id="HE2thZA_2mZJquEUhGNp-292" style="edgeStyle=orthogonalEdgeStyle;rounded=0;orthogonalLoop=1;jettySize=auto;html=1;flowAnimation=1;strokeColor=#99FFFF;align=center;verticalAlign=middle;fontFamily=Helvetica;fontSize=11;fontColor=#000000;labelBackgroundColor=default;endArrow=classic;" parent="1" source="HE2thZA_2mZJquEUhGNp-58" target="HE2thZA_2mZJquEUhGNp-266" edge="1">
          <mxGeometry relative="1" as="geometry" />
        </mxCell>
        <mxCell id="HE2thZA_2mZJquEUhGNp-96" style="edgeStyle=orthogonalEdgeStyle;rounded=0;orthogonalLoop=1;jettySize=auto;html=1;entryX=1;entryY=0.5;entryDx=0;entryDy=0;endArrow=none;endFill=0;" parent="1" source="EGReewrqneR2WTqJuPq--62" target="HE2thZA_2mZJquEUhGNp-58" edge="1">
          <mxGeometry relative="1" as="geometry" />
        </mxCell>
        <mxCell id="HE2thZA_2mZJquEUhGNp-58" value="Params" style="swimlane;fontStyle=0;childLayout=stackLayout;horizontal=1;startSize=30;horizontalStack=0;resizeParent=1;resizeParentMax=0;resizeLast=0;collapsible=1;marginBottom=0;whiteSpace=wrap;html=1;fontSize=16;" parent="1" vertex="1">
          <mxGeometry x="1880" y="-1295" width="140" height="90" as="geometry" />
        </mxCell>
        <mxCell id="HE2thZA_2mZJquEUhGNp-200" value="old_role: string" style="text;strokeColor=none;fillColor=none;align=left;verticalAlign=middle;spacingLeft=4;spacingRight=4;overflow=hidden;points=[[0,0.5],[1,0.5]];portConstraint=eastwest;rotatable=0;whiteSpace=wrap;html=1;fontSize=16;" parent="HE2thZA_2mZJquEUhGNp-58" vertex="1">
          <mxGeometry y="30" width="140" height="30" as="geometry" />
        </mxCell>
        <mxCell id="HE2thZA_2mZJquEUhGNp-60" value="new_role: string" style="text;strokeColor=none;fillColor=none;align=left;verticalAlign=middle;spacingLeft=4;spacingRight=4;overflow=hidden;points=[[0,0.5],[1,0.5]];portConstraint=eastwest;rotatable=0;whiteSpace=wrap;html=1;fontSize=16;" parent="HE2thZA_2mZJquEUhGNp-58" vertex="1">
          <mxGeometry y="60" width="140" height="30" as="geometry" />
        </mxCell>
        <mxCell id="HE2thZA_2mZJquEUhGNp-264" value="&lt;font style=&quot;font-size: 22px;&quot;&gt;POST /staff&lt;/font&gt;&lt;span style=&quot;font-size: 22px;&quot;&gt;/:id/:role&lt;/span&gt;" style="rounded=0;whiteSpace=wrap;html=1;fontSize=16;fontColor=#000000;fillColor=#FFFFCC;strokeColor=default;align=center;verticalAlign=middle;fontFamily=Helvetica;" parent="1" vertex="1">
          <mxGeometry x="1570" y="-1540" width="180" height="90" as="geometry" />
        </mxCell>
        <mxCell id="HE2thZA_2mZJquEUhGNp-291" style="edgeStyle=orthogonalEdgeStyle;rounded=0;orthogonalLoop=1;jettySize=auto;html=1;entryX=1;entryY=0.5;entryDx=0;entryDy=0;flowAnimation=1;fontColor=default;strokeColor=#FFFFCC;align=center;verticalAlign=middle;fontFamily=Helvetica;fontSize=11;labelBackgroundColor=default;endArrow=classic;" parent="1" source="HE2thZA_2mZJquEUhGNp-55" target="HE2thZA_2mZJquEUhGNp-264" edge="1">
          <mxGeometry relative="1" as="geometry" />
        </mxCell>
        <mxCell id="HE2thZA_2mZJquEUhGNp-95" style="edgeStyle=orthogonalEdgeStyle;rounded=0;orthogonalLoop=1;jettySize=auto;html=1;entryX=1;entryY=0.5;entryDx=0;entryDy=0;endArrow=none;endFill=0;" parent="1" source="EGReewrqneR2WTqJuPq--61" target="HE2thZA_2mZJquEUhGNp-55" edge="1">
          <mxGeometry relative="1" as="geometry" />
        </mxCell>
        <mxCell id="EGReewrqneR2WTqJuPq--61" value="/register" style="rounded=0;whiteSpace=wrap;html=1;fontSize=16;strokeColor=default;align=center;verticalAlign=middle;fontFamily=Helvetica;fontColor=#ffffff;fillColor=default;" parent="1" vertex="1">
          <mxGeometry x="2130" y="-1525" width="120" height="60" as="geometry" />
        </mxCell>
        <mxCell id="HE2thZA_2mZJquEUhGNp-55" value="Params" style="swimlane;fontStyle=0;childLayout=stackLayout;horizontal=1;startSize=30;horizontalStack=0;resizeParent=1;resizeParentMax=0;resizeLast=0;collapsible=1;marginBottom=0;whiteSpace=wrap;html=1;fontSize=16;" parent="1" vertex="1">
          <mxGeometry x="1880" y="-1525" width="140" height="60" as="geometry" />
        </mxCell>
        <mxCell id="HE2thZA_2mZJquEUhGNp-57" value="role: string" style="text;strokeColor=none;fillColor=none;align=left;verticalAlign=middle;spacingLeft=4;spacingRight=4;overflow=hidden;points=[[0,0.5],[1,0.5]];portConstraint=eastwest;rotatable=0;whiteSpace=wrap;html=1;fontSize=16;" parent="HE2thZA_2mZJquEUhGNp-55" vertex="1">
          <mxGeometry y="30" width="140" height="30" as="geometry" />
        </mxCell>
        <mxCell id="HE2thZA_2mZJquEUhGNp-263" value="&lt;font style=&quot;font-size: 22px;&quot;&gt;GET /staff/:role&lt;/font&gt;" style="rounded=0;whiteSpace=wrap;html=1;fontSize=16;fillColor=#CCFFCC;fontColor=#000000;" parent="1" vertex="1">
          <mxGeometry x="1570" y="-1780" width="180" height="90" as="geometry" />
        </mxCell>
        <mxCell id="HE2thZA_2mZJquEUhGNp-290" style="edgeStyle=orthogonalEdgeStyle;rounded=0;orthogonalLoop=1;jettySize=auto;html=1;entryX=1;entryY=0.5;entryDx=0;entryDy=0;flowAnimation=1;strokeColor=#CCFFE6;" parent="1" source="HE2thZA_2mZJquEUhGNp-52" target="HE2thZA_2mZJquEUhGNp-263" edge="1">
          <mxGeometry relative="1" as="geometry" />
        </mxCell>
        <mxCell id="HE2thZA_2mZJquEUhGNp-94" style="edgeStyle=orthogonalEdgeStyle;rounded=0;orthogonalLoop=1;jettySize=auto;html=1;entryX=1;entryY=0.5;entryDx=0;entryDy=0;endArrow=none;endFill=0;" parent="1" source="EGReewrqneR2WTqJuPq--60" target="HE2thZA_2mZJquEUhGNp-52" edge="1">
          <mxGeometry relative="1" as="geometry" />
        </mxCell>
        <mxCell id="EGReewrqneR2WTqJuPq--60" value="/list" style="rounded=0;whiteSpace=wrap;html=1;fontSize=16;strokeColor=default;align=center;verticalAlign=middle;fontFamily=Helvetica;fontColor=#ffffff;fillColor=default;" parent="1" vertex="1">
          <mxGeometry x="2130" y="-1765" width="120" height="60" as="geometry" />
        </mxCell>
        <mxCell id="HE2thZA_2mZJquEUhGNp-52" value="Params" style="swimlane;fontStyle=0;childLayout=stackLayout;horizontal=1;startSize=30;horizontalStack=0;resizeParent=1;resizeParentMax=0;resizeLast=0;collapsible=1;marginBottom=0;whiteSpace=wrap;html=1;fontSize=16;" parent="1" vertex="1">
          <mxGeometry x="1880" y="-1765" width="140" height="60" as="geometry" />
        </mxCell>
        <mxCell id="HE2thZA_2mZJquEUhGNp-53" value="role?: string" style="text;strokeColor=none;fillColor=none;align=left;verticalAlign=middle;spacingLeft=4;spacingRight=4;overflow=hidden;points=[[0,0.5],[1,0.5]];portConstraint=eastwest;rotatable=0;whiteSpace=wrap;html=1;fontSize=16;" parent="HE2thZA_2mZJquEUhGNp-52" vertex="1">
          <mxGeometry y="30" width="140" height="30" as="geometry" />
        </mxCell>
        <mxCell id="EGReewrqneR2WTqJuPq--62" value="/change" style="rounded=0;whiteSpace=wrap;html=1;fontSize=16;container=0;strokeColor=default;align=center;verticalAlign=middle;fontFamily=Helvetica;fontColor=#ffffff;fillColor=default;" parent="1" vertex="1">
          <mxGeometry x="2130" y="-1280" width="120" height="60" as="geometry" />
        </mxCell>
        <mxCell id="HE2thZA_2mZJquEUhGNp-156" value="" style="shape=ellipse;html=1;dashed=0;whiteSpace=wrap;aspect=fixed;perimeter=ellipsePerimeter;fillColor=#99FFFF;fontSize=16;container=0;" parent="1" vertex="1">
          <mxGeometry x="2130" y="-1320" width="30" height="30" as="geometry" />
        </mxCell>
        <mxCell id="HE2thZA_2mZJquEUhGNp-157" value="" style="shape=ellipse;html=1;dashed=0;whiteSpace=wrap;aspect=fixed;perimeter=ellipsePerimeter;fillColor=#FFCCCC;fontSize=16;container=0;" parent="1" vertex="1">
          <mxGeometry x="2175" y="-1320" width="30" height="30" as="geometry" />
        </mxCell>
        <mxCell id="EGReewrqneR2WTqJuPq--63" value="/leave" style="rounded=0;whiteSpace=wrap;html=1;fontSize=16;container=0;strokeColor=default;align=center;verticalAlign=middle;fontFamily=Helvetica;fontColor=#ffffff;fillColor=default;" parent="1" vertex="1">
          <mxGeometry x="2130" y="-1040" width="120" height="60" as="geometry" />
        </mxCell>
        <mxCell id="HE2thZA_2mZJquEUhGNp-159" value="" style="shape=ellipse;html=1;dashed=0;whiteSpace=wrap;aspect=fixed;perimeter=ellipsePerimeter;fillColor=#99FFFF;fontSize=16;container=0;" parent="1" vertex="1">
          <mxGeometry x="2130" y="-1080" width="30" height="30" as="geometry" />
        </mxCell>
        <mxCell id="HE2thZA_2mZJquEUhGNp-160" value="" style="shape=ellipse;html=1;dashed=0;whiteSpace=wrap;aspect=fixed;perimeter=ellipsePerimeter;fillColor=#FFCCCC;fontSize=16;container=0;" parent="1" vertex="1">
          <mxGeometry x="2175" y="-1080" width="30" height="30" as="geometry" />
        </mxCell>
        <mxCell id="EGReewrqneR2WTqJuPq--46" style="edgeStyle=orthogonalEdgeStyle;rounded=0;orthogonalLoop=1;jettySize=auto;html=1;entryX=0;entryY=0.5;entryDx=0;entryDy=0;endArrow=none;endFill=0;" parent="1" source="EGReewrqneR2WTqJuPq--8" target="EGReewrqneR2WTqJuPq--22" edge="1">
          <mxGeometry relative="1" as="geometry" />
        </mxCell>
        <mxCell id="EGReewrqneR2WTqJuPq--47" style="edgeStyle=orthogonalEdgeStyle;rounded=0;orthogonalLoop=1;jettySize=auto;html=1;entryX=0;entryY=0.5;entryDx=0;entryDy=0;endArrow=none;endFill=0;" parent="1" source="EGReewrqneR2WTqJuPq--8" target="EGReewrqneR2WTqJuPq--7" edge="1">
          <mxGeometry relative="1" as="geometry" />
        </mxCell>
        <mxCell id="EGReewrqneR2WTqJuPq--48" style="edgeStyle=orthogonalEdgeStyle;rounded=0;orthogonalLoop=1;jettySize=auto;html=1;entryX=0;entryY=0.5;entryDx=0;entryDy=0;endArrow=none;endFill=0;" parent="1" source="EGReewrqneR2WTqJuPq--8" target="EGReewrqneR2WTqJuPq--6" edge="1">
          <mxGeometry relative="1" as="geometry" />
        </mxCell>
        <mxCell id="HE2thZA_2mZJquEUhGNp-202" style="edgeStyle=orthogonalEdgeStyle;rounded=0;orthogonalLoop=1;jettySize=auto;html=1;endArrow=none;endFill=0;entryX=0;entryY=0.5;entryDx=0;entryDy=0;" parent="1" source="EGReewrqneR2WTqJuPq--8" target="HE2thZA_2mZJquEUhGNp-201" edge="1">
          <mxGeometry relative="1" as="geometry" />
        </mxCell>
        <mxCell id="EGReewrqneR2WTqJuPq--8" value="/match" style="rounded=1;whiteSpace=wrap;html=1;fontSize=16;fillColor=#FFCCFF;fontColor=#000000;" parent="1" vertex="1">
          <mxGeometry x="3500" y="-1397.5" width="120" height="60" as="geometry" />
        </mxCell>
        <mxCell id="HE2thZA_2mZJquEUhGNp-259" value="&lt;font style=&quot;font-size: 22px;&quot;&gt;GET /match/:id&lt;/font&gt;" style="rounded=0;whiteSpace=wrap;html=1;fontSize=16;fillColor=#CCFFCC;fontColor=#000000;" parent="1" vertex="1">
          <mxGeometry x="4220" y="-1777.5" width="180" height="90" as="geometry" />
        </mxCell>
        <mxCell id="HE2thZA_2mZJquEUhGNp-260" value="&lt;font style=&quot;font-size: 22px;&quot;&gt;PUT /match/:id/ref&lt;/font&gt;" style="rounded=0;whiteSpace=wrap;html=1;fontSize=16;fillColor=#99FFFF;fontColor=#000000;strokeColor=default;align=center;verticalAlign=middle;fontFamily=Helvetica;" parent="1" vertex="1">
          <mxGeometry x="4220" y="-1537.5" width="180" height="90" as="geometry" />
        </mxCell>
        <mxCell id="HE2thZA_2mZJquEUhGNp-261" value="&lt;span style=&quot;font-size: 22px;&quot;&gt;PUT /match&lt;/span&gt;&lt;span style=&quot;font-size: 22px;&quot;&gt;/:id/&lt;/span&gt;&lt;span style=&quot;font-size: 22px;&quot;&gt;time&lt;/span&gt;" style="rounded=0;whiteSpace=wrap;html=1;fontSize=16;fillColor=#99FFFF;fontColor=#000000;strokeColor=default;align=center;verticalAlign=middle;fontFamily=Helvetica;" parent="1" vertex="1">
          <mxGeometry x="4220" y="-1052.5" width="180" height="90" as="geometry" />
        </mxCell>
        <mxCell id="HE2thZA_2mZJquEUhGNp-262" value="&lt;font style=&quot;font-size: 22px;&quot;&gt;DELETE /match/:id/ref&lt;/font&gt;" style="rounded=0;whiteSpace=wrap;html=1;fontSize=16;fillColor=#FFCCCC;fontColor=#000000;" parent="1" vertex="1">
          <mxGeometry x="4220" y="-1292.5" width="180" height="90" as="geometry" />
        </mxCell>
        <mxCell id="HE2thZA_2mZJquEUhGNp-286" style="edgeStyle=orthogonalEdgeStyle;rounded=0;orthogonalLoop=1;jettySize=auto;html=1;flowAnimation=1;strokeColor=#CCFFE6;" parent="1" source="HE2thZA_2mZJquEUhGNp-44" target="HE2thZA_2mZJquEUhGNp-259" edge="1">
          <mxGeometry relative="1" as="geometry" />
        </mxCell>
        <mxCell id="HE2thZA_2mZJquEUhGNp-287" style="edgeStyle=orthogonalEdgeStyle;rounded=0;orthogonalLoop=1;jettySize=auto;html=1;entryX=0;entryY=0.5;entryDx=0;entryDy=0;flowAnimation=1;strokeColor=#99FFFF;align=center;verticalAlign=middle;fontFamily=Helvetica;fontSize=11;fontColor=#000000;labelBackgroundColor=default;endArrow=classic;" parent="1" source="HE2thZA_2mZJquEUhGNp-46" target="HE2thZA_2mZJquEUhGNp-260" edge="1">
          <mxGeometry relative="1" as="geometry" />
        </mxCell>
        <mxCell id="HE2thZA_2mZJquEUhGNp-288" style="edgeStyle=orthogonalEdgeStyle;rounded=0;orthogonalLoop=1;jettySize=auto;html=1;entryX=0;entryY=0.5;entryDx=0;entryDy=0;flowAnimation=1;strokeColor=#FFCCCC;" parent="1" source="HE2thZA_2mZJquEUhGNp-203" target="HE2thZA_2mZJquEUhGNp-262" edge="1">
          <mxGeometry relative="1" as="geometry" />
        </mxCell>
        <mxCell id="HE2thZA_2mZJquEUhGNp-289" style="edgeStyle=orthogonalEdgeStyle;rounded=0;orthogonalLoop=1;jettySize=auto;html=1;flowAnimation=1;strokeColor=#99FFFF;entryX=0;entryY=0.5;entryDx=0;entryDy=0;align=center;verticalAlign=middle;fontFamily=Helvetica;fontSize=11;fontColor=#000000;labelBackgroundColor=default;endArrow=classic;" parent="1" source="HE2thZA_2mZJquEUhGNp-49" target="HE2thZA_2mZJquEUhGNp-261" edge="1">
          <mxGeometry relative="1" as="geometry" />
        </mxCell>
        <mxCell id="HE2thZA_2mZJquEUhGNp-91" style="edgeStyle=orthogonalEdgeStyle;rounded=0;orthogonalLoop=1;jettySize=auto;html=1;entryX=0;entryY=0.5;entryDx=0;entryDy=0;endArrow=none;endFill=0;" parent="1" source="EGReewrqneR2WTqJuPq--22" target="HE2thZA_2mZJquEUhGNp-44" edge="1">
          <mxGeometry relative="1" as="geometry" />
        </mxCell>
        <mxCell id="EGReewrqneR2WTqJuPq--22" value="/get" style="rounded=0;whiteSpace=wrap;html=1;fontSize=16;strokeColor=default;align=center;verticalAlign=middle;fontFamily=Helvetica;fontColor=#ffffff;fillColor=default;" parent="1" vertex="1">
          <mxGeometry x="3730" y="-1762.5" width="120" height="60" as="geometry" />
        </mxCell>
        <mxCell id="HE2thZA_2mZJquEUhGNp-44" value="Params" style="swimlane;fontStyle=0;childLayout=stackLayout;horizontal=1;startSize=30;horizontalStack=0;resizeParent=1;resizeParentMax=0;resizeLast=0;collapsible=1;marginBottom=0;whiteSpace=wrap;html=1;fontSize=16;" parent="1" vertex="1">
          <mxGeometry x="3950" y="-1762.5" width="140" height="60" as="geometry" />
        </mxCell>
        <mxCell id="HE2thZA_2mZJquEUhGNp-45" value="match_id: number" style="text;strokeColor=none;fillColor=none;align=left;verticalAlign=middle;spacingLeft=4;spacingRight=4;overflow=hidden;points=[[0,0.5],[1,0.5]];portConstraint=eastwest;rotatable=0;whiteSpace=wrap;html=1;fontSize=16;" parent="HE2thZA_2mZJquEUhGNp-44" vertex="1">
          <mxGeometry y="30" width="140" height="30" as="geometry" />
        </mxCell>
        <mxCell id="HE2thZA_2mZJquEUhGNp-92" style="edgeStyle=orthogonalEdgeStyle;rounded=0;orthogonalLoop=1;jettySize=auto;html=1;entryX=0;entryY=0.5;entryDx=0;entryDy=0;endArrow=none;endFill=0;" parent="1" source="EGReewrqneR2WTqJuPq--6" target="HE2thZA_2mZJquEUhGNp-46" edge="1">
          <mxGeometry relative="1" as="geometry" />
        </mxCell>
        <mxCell id="EGReewrqneR2WTqJuPq--6" value="/assign-ref" style="rounded=0;whiteSpace=wrap;html=1;fontSize=16;strokeColor=default;align=center;verticalAlign=middle;fontFamily=Helvetica;fontColor=#ffffff;fillColor=default;" parent="1" vertex="1">
          <mxGeometry x="3730" y="-1522.5" width="120" height="60" as="geometry" />
        </mxCell>
        <mxCell id="HE2thZA_2mZJquEUhGNp-46" value="Params" style="swimlane;fontStyle=0;childLayout=stackLayout;horizontal=1;startSize=30;horizontalStack=0;resizeParent=1;resizeParentMax=0;resizeLast=0;collapsible=1;marginBottom=0;whiteSpace=wrap;html=1;fontSize=16;" parent="1" vertex="1">
          <mxGeometry x="3950" y="-1537.5" width="140" height="90" as="geometry" />
        </mxCell>
        <mxCell id="HE2thZA_2mZJquEUhGNp-47" value="match_id: number" style="text;strokeColor=none;fillColor=none;align=left;verticalAlign=middle;spacingLeft=4;spacingRight=4;overflow=hidden;points=[[0,0.5],[1,0.5]];portConstraint=eastwest;rotatable=0;whiteSpace=wrap;html=1;fontSize=16;" parent="HE2thZA_2mZJquEUhGNp-46" vertex="1">
          <mxGeometry y="30" width="140" height="30" as="geometry" />
        </mxCell>
        <mxCell id="HE2thZA_2mZJquEUhGNp-48" value="ref_id: number" style="text;strokeColor=none;fillColor=none;align=left;verticalAlign=middle;spacingLeft=4;spacingRight=4;overflow=hidden;points=[[0,0.5],[1,0.5]];portConstraint=eastwest;rotatable=0;whiteSpace=wrap;html=1;fontSize=16;" parent="HE2thZA_2mZJquEUhGNp-46" vertex="1">
          <mxGeometry y="60" width="140" height="30" as="geometry" />
        </mxCell>
        <mxCell id="HE2thZA_2mZJquEUhGNp-176" value="" style="shape=ellipse;html=1;dashed=0;whiteSpace=wrap;aspect=fixed;perimeter=ellipsePerimeter;fillColor=#99FFFF;fontSize=16;" parent="1" vertex="1">
          <mxGeometry x="3730" y="-1317.5" width="30" height="30" as="geometry" />
        </mxCell>
        <mxCell id="HE2thZA_2mZJquEUhGNp-191" value="" style="shape=ellipse;html=1;dashed=0;whiteSpace=wrap;aspect=fixed;perimeter=ellipsePerimeter;fillColor=#FFCCCC;fontSize=16;" parent="1" vertex="1">
          <mxGeometry x="3775" y="-1317.5" width="30" height="30" as="geometry" />
        </mxCell>
        <mxCell id="HE2thZA_2mZJquEUhGNp-205" style="edgeStyle=orthogonalEdgeStyle;rounded=0;orthogonalLoop=1;jettySize=auto;html=1;entryX=0;entryY=0.5;entryDx=0;entryDy=0;endArrow=none;endFill=0;" parent="1" source="HE2thZA_2mZJquEUhGNp-201" target="HE2thZA_2mZJquEUhGNp-203" edge="1">
          <mxGeometry relative="1" as="geometry" />
        </mxCell>
        <mxCell id="HE2thZA_2mZJquEUhGNp-201" value="/remove-ref" style="rounded=0;whiteSpace=wrap;html=1;fontSize=16;strokeColor=default;align=center;verticalAlign=middle;fontFamily=Helvetica;fontColor=#ffffff;fillColor=default;" parent="1" vertex="1">
          <mxGeometry x="3730" y="-1277.5" width="120" height="60" as="geometry" />
        </mxCell>
        <mxCell id="HE2thZA_2mZJquEUhGNp-203" value="Params" style="swimlane;fontStyle=0;childLayout=stackLayout;horizontal=1;startSize=30;horizontalStack=0;resizeParent=1;resizeParentMax=0;resizeLast=0;collapsible=1;marginBottom=0;whiteSpace=wrap;html=1;fontSize=16;" parent="1" vertex="1">
          <mxGeometry x="3950" y="-1277.5" width="140" height="60" as="geometry" />
        </mxCell>
        <mxCell id="HE2thZA_2mZJquEUhGNp-204" value="match_id: number" style="text;strokeColor=none;fillColor=none;align=left;verticalAlign=middle;spacingLeft=4;spacingRight=4;overflow=hidden;points=[[0,0.5],[1,0.5]];portConstraint=eastwest;rotatable=0;whiteSpace=wrap;html=1;fontSize=16;" parent="HE2thZA_2mZJquEUhGNp-203" vertex="1">
          <mxGeometry y="30" width="140" height="30" as="geometry" />
        </mxCell>
        <mxCell id="HE2thZA_2mZJquEUhGNp-206" value="" style="shape=ellipse;html=1;dashed=0;whiteSpace=wrap;aspect=fixed;perimeter=ellipsePerimeter;fillColor=#99FFFF;fontSize=16;" parent="1" vertex="1">
          <mxGeometry x="3730" y="-1557.5" width="30" height="30" as="geometry" />
        </mxCell>
        <mxCell id="HE2thZA_2mZJquEUhGNp-207" value="" style="shape=ellipse;html=1;dashed=0;whiteSpace=wrap;aspect=fixed;perimeter=ellipsePerimeter;fillColor=#FFCCCC;fontSize=16;" parent="1" vertex="1">
          <mxGeometry x="3775" y="-1557.5" width="30" height="30" as="geometry" />
        </mxCell>
        <mxCell id="HE2thZA_2mZJquEUhGNp-93" style="edgeStyle=orthogonalEdgeStyle;rounded=0;orthogonalLoop=1;jettySize=auto;html=1;entryX=0;entryY=0.5;entryDx=0;entryDy=0;endArrow=none;endFill=0;" parent="1" source="EGReewrqneR2WTqJuPq--7" target="HE2thZA_2mZJquEUhGNp-49" edge="1">
          <mxGeometry relative="1" as="geometry" />
        </mxCell>
        <mxCell id="EGReewrqneR2WTqJuPq--7" value="/reschedule" style="rounded=0;whiteSpace=wrap;html=1;fontSize=16;strokeColor=default;align=center;verticalAlign=middle;fontFamily=Helvetica;fontColor=#ffffff;fillColor=default;" parent="1" vertex="1">
          <mxGeometry x="3730" y="-1037.5" width="120" height="60" as="geometry" />
        </mxCell>
        <mxCell id="HE2thZA_2mZJquEUhGNp-49" value="Params" style="swimlane;fontStyle=0;childLayout=stackLayout;horizontal=1;startSize=30;horizontalStack=0;resizeParent=1;resizeParentMax=0;resizeLast=0;collapsible=1;marginBottom=0;whiteSpace=wrap;html=1;fontSize=16;" parent="1" vertex="1">
          <mxGeometry x="3950" y="-1082.5" width="169" height="150" as="geometry" />
        </mxCell>
        <mxCell id="HE2thZA_2mZJquEUhGNp-50" value="match_id: number" style="text;strokeColor=none;fillColor=none;align=left;verticalAlign=middle;spacingLeft=4;spacingRight=4;overflow=hidden;points=[[0,0.5],[1,0.5]];portConstraint=eastwest;rotatable=0;whiteSpace=wrap;html=1;fontSize=16;" parent="HE2thZA_2mZJquEUhGNp-49" vertex="1">
          <mxGeometry y="30" width="169" height="30" as="geometry" />
        </mxCell>
        <mxCell id="-d9S9vMfLmMUD7XQ1lsK-3" value="day_of_week: number" style="text;strokeColor=none;fillColor=none;align=left;verticalAlign=middle;spacingLeft=4;spacingRight=4;overflow=hidden;points=[[0,0.5],[1,0.5]];portConstraint=eastwest;rotatable=0;whiteSpace=wrap;html=1;fontSize=16;" parent="HE2thZA_2mZJquEUhGNp-49" vertex="1">
          <mxGeometry y="60" width="169" height="30" as="geometry" />
        </mxCell>
        <mxCell id="-d9S9vMfLmMUD7XQ1lsK-1" value="hour: number" style="text;strokeColor=none;fillColor=none;align=left;verticalAlign=middle;spacingLeft=4;spacingRight=4;overflow=hidden;points=[[0,0.5],[1,0.5]];portConstraint=eastwest;rotatable=0;whiteSpace=wrap;html=1;fontSize=16;" parent="HE2thZA_2mZJquEUhGNp-49" vertex="1">
          <mxGeometry y="90" width="169" height="30" as="geometry" />
        </mxCell>
        <mxCell id="-d9S9vMfLmMUD7XQ1lsK-2" value="minute: number" style="text;strokeColor=none;fillColor=none;align=left;verticalAlign=middle;spacingLeft=4;spacingRight=4;overflow=hidden;points=[[0,0.5],[1,0.5]];portConstraint=eastwest;rotatable=0;whiteSpace=wrap;html=1;fontSize=16;" parent="HE2thZA_2mZJquEUhGNp-49" vertex="1">
          <mxGeometry y="120" width="169" height="30" as="geometry" />
        </mxCell>
        <mxCell id="EGReewrqneR2WTqJuPq--81" value="/standings" style="rounded=1;whiteSpace=wrap;html=1;fontSize=16;strokeColor=default;align=center;verticalAlign=middle;fontFamily=Helvetica;fontColor=default;fillColor=#CC6600;" parent="1" vertex="1">
          <mxGeometry x="4820" y="270" width="120" height="60" as="geometry" />
        </mxCell>
        <mxCell id="HE2thZA_2mZJquEUhGNp-271" value="&lt;font style=&quot;font-size: 22px;&quot;&gt;GET /standings&lt;/font&gt;" style="rounded=0;whiteSpace=wrap;html=1;fontSize=16;fillColor=#CCFFCC;fontColor=#000000;" parent="1" vertex="1">
          <mxGeometry x="4790" y="960" width="180" height="90" as="geometry" />
        </mxCell>
        <mxCell id="HE2thZA_2mZJquEUhGNp-298" style="edgeStyle=orthogonalEdgeStyle;rounded=0;orthogonalLoop=1;jettySize=auto;html=1;entryX=0.5;entryY=0;entryDx=0;entryDy=0;flowAnimation=1;strokeColor=#CCFFE6;" parent="1" source="HE2thZA_2mZJquEUhGNp-74" target="HE2thZA_2mZJquEUhGNp-271" edge="1">
          <mxGeometry relative="1" as="geometry" />
        </mxCell>
        <mxCell id="EGReewrqneR2WTqJuPq--73" style="edgeStyle=orthogonalEdgeStyle;rounded=0;orthogonalLoop=1;jettySize=auto;html=1;entryX=0.5;entryY=0;entryDx=0;entryDy=0;endArrow=none;endFill=0;" parent="1" source="EGReewrqneR2WTqJuPq--57" target="EGReewrqneR2WTqJuPq--69" edge="1">
          <mxGeometry relative="1" as="geometry" />
        </mxCell>
        <mxCell id="EGReewrqneR2WTqJuPq--74" style="edgeStyle=orthogonalEdgeStyle;rounded=0;orthogonalLoop=1;jettySize=auto;html=1;entryX=0.5;entryY=0;entryDx=0;entryDy=0;endArrow=none;endFill=0;" parent="1" source="EGReewrqneR2WTqJuPq--57" target="EGReewrqneR2WTqJuPq--70" edge="1">
          <mxGeometry relative="1" as="geometry" />
        </mxCell>
        <mxCell id="EGReewrqneR2WTqJuPq--75" style="edgeStyle=orthogonalEdgeStyle;rounded=0;orthogonalLoop=1;jettySize=auto;html=1;endArrow=none;endFill=0;" parent="1" source="EGReewrqneR2WTqJuPq--57" target="EGReewrqneR2WTqJuPq--71" edge="1">
          <mxGeometry relative="1" as="geometry" />
        </mxCell>
        <mxCell id="EGReewrqneR2WTqJuPq--76" style="edgeStyle=orthogonalEdgeStyle;rounded=0;orthogonalLoop=1;jettySize=auto;html=1;entryX=0.5;entryY=0;entryDx=0;entryDy=0;endArrow=none;endFill=0;" parent="1" source="EGReewrqneR2WTqJuPq--57" target="EGReewrqneR2WTqJuPq--72" edge="1">
          <mxGeometry relative="1" as="geometry" />
        </mxCell>
        <mxCell id="EGReewrqneR2WTqJuPq--57" value="/schedule" style="rounded=1;whiteSpace=wrap;html=1;fontSize=16;fillColor=#CC6600;" parent="1" vertex="1">
          <mxGeometry x="4080" y="270" width="120" height="60" as="geometry" />
        </mxCell>
        <mxCell id="HE2thZA_2mZJquEUhGNp-267" value="&lt;font style=&quot;font-size: 22px;&quot;&gt;GET /schedule&lt;/font&gt;" style="rounded=0;whiteSpace=wrap;html=1;fontSize=16;fillColor=#CCFFCC;fontColor=#000000;" parent="1" vertex="1">
          <mxGeometry x="3690" y="959" width="180" height="90" as="geometry" />
        </mxCell>
        <mxCell id="HE2thZA_2mZJquEUhGNp-268" value="&lt;font style=&quot;font-size: 22px;&quot;&gt;POST /schedule/:event&lt;/font&gt;" style="rounded=0;whiteSpace=wrap;html=1;fontSize=16;fontColor=#000000;fillColor=#FFFFCC;strokeColor=default;align=center;verticalAlign=middle;fontFamily=Helvetica;" parent="1" vertex="1">
          <mxGeometry x="3930" y="960" width="180" height="90" as="geometry" />
        </mxCell>
        <mxCell id="HE2thZA_2mZJquEUhGNp-269" value="&lt;font style=&quot;font-size: 22px;&quot;&gt;DELETE /schedule&lt;/font&gt;&lt;span style=&quot;font-size: 22px;&quot;&gt;/:event&lt;/span&gt;" style="rounded=0;whiteSpace=wrap;html=1;fontSize=16;fillColor=#FFCCCC;fontColor=#000000;" parent="1" vertex="1">
          <mxGeometry x="4410" y="960" width="180" height="90" as="geometry" />
        </mxCell>
        <mxCell id="HE2thZA_2mZJquEUhGNp-270" value="&lt;font style=&quot;font-size: 22px;&quot;&gt;PUT /schedule&lt;/font&gt;&lt;span style=&quot;font-size: 22px;&quot;&gt;/:event&lt;/span&gt;" style="rounded=0;whiteSpace=wrap;html=1;fontSize=16;fillColor=#99FFFF;fontColor=#000000;strokeColor=default;align=center;verticalAlign=middle;fontFamily=Helvetica;" parent="1" vertex="1">
          <mxGeometry x="4170" y="960" width="180" height="90" as="geometry" />
        </mxCell>
        <mxCell id="HE2thZA_2mZJquEUhGNp-294" style="edgeStyle=orthogonalEdgeStyle;rounded=0;orthogonalLoop=1;jettySize=auto;html=1;entryX=0.5;entryY=0;entryDx=0;entryDy=0;flowAnimation=1;strokeColor=#CCFFE6;" parent="1" source="HE2thZA_2mZJquEUhGNp-72" target="HE2thZA_2mZJquEUhGNp-267" edge="1">
          <mxGeometry relative="1" as="geometry" />
        </mxCell>
        <mxCell id="HE2thZA_2mZJquEUhGNp-295" style="edgeStyle=orthogonalEdgeStyle;rounded=0;orthogonalLoop=1;jettySize=auto;html=1;entryX=0.5;entryY=0;entryDx=0;entryDy=0;flowAnimation=1;fontColor=default;strokeColor=#FFFFCC;align=center;verticalAlign=middle;fontFamily=Helvetica;fontSize=11;labelBackgroundColor=default;endArrow=classic;" parent="1" source="HE2thZA_2mZJquEUhGNp-64" target="HE2thZA_2mZJquEUhGNp-268" edge="1">
          <mxGeometry relative="1" as="geometry" />
        </mxCell>
        <mxCell id="HE2thZA_2mZJquEUhGNp-296" style="edgeStyle=orthogonalEdgeStyle;rounded=0;orthogonalLoop=1;jettySize=auto;html=1;entryX=0.5;entryY=0;entryDx=0;entryDy=0;flowAnimation=1;strokeColor=#99FFFF;align=center;verticalAlign=middle;fontFamily=Helvetica;fontSize=11;fontColor=#000000;labelBackgroundColor=default;endArrow=classic;" parent="1" source="HE2thZA_2mZJquEUhGNp-66" target="HE2thZA_2mZJquEUhGNp-270" edge="1">
          <mxGeometry relative="1" as="geometry" />
        </mxCell>
        <mxCell id="HE2thZA_2mZJquEUhGNp-297" style="edgeStyle=orthogonalEdgeStyle;rounded=0;orthogonalLoop=1;jettySize=auto;html=1;entryX=0.5;entryY=0;entryDx=0;entryDy=0;flowAnimation=1;strokeColor=#FFCCCC;" parent="1" source="HE2thZA_2mZJquEUhGNp-68" target="HE2thZA_2mZJquEUhGNp-269" edge="1">
          <mxGeometry relative="1" as="geometry" />
        </mxCell>
        <mxCell id="EGReewrqneR2WTqJuPq--38" style="edgeStyle=orthogonalEdgeStyle;rounded=0;orthogonalLoop=1;jettySize=auto;html=1;entryX=0.5;entryY=0;entryDx=0;entryDy=0;endArrow=none;endFill=0;" parent="1" source="EGReewrqneR2WTqJuPq--5" target="EGReewrqneR2WTqJuPq--15" edge="1">
          <mxGeometry relative="1" as="geometry" />
        </mxCell>
        <mxCell id="EGReewrqneR2WTqJuPq--39" style="edgeStyle=orthogonalEdgeStyle;rounded=0;orthogonalLoop=1;jettySize=auto;html=1;entryX=0.5;entryY=0;entryDx=0;entryDy=0;endArrow=none;endFill=0;" parent="1" source="EGReewrqneR2WTqJuPq--5" target="EGReewrqneR2WTqJuPq--14" edge="1">
          <mxGeometry relative="1" as="geometry" />
        </mxCell>
        <mxCell id="EGReewrqneR2WTqJuPq--40" style="edgeStyle=orthogonalEdgeStyle;rounded=0;orthogonalLoop=1;jettySize=auto;html=1;entryX=0.5;entryY=0;entryDx=0;entryDy=0;endArrow=none;endFill=0;" parent="1" source="EGReewrqneR2WTqJuPq--5" target="EGReewrqneR2WTqJuPq--17" edge="1">
          <mxGeometry relative="1" as="geometry" />
        </mxCell>
        <mxCell id="EGReewrqneR2WTqJuPq--41" style="edgeStyle=orthogonalEdgeStyle;rounded=0;orthogonalLoop=1;jettySize=auto;html=1;entryX=0.5;entryY=0;entryDx=0;entryDy=0;endArrow=none;endFill=0;" parent="1" source="EGReewrqneR2WTqJuPq--5" target="EGReewrqneR2WTqJuPq--16" edge="1">
          <mxGeometry relative="1" as="geometry" />
        </mxCell>
        <mxCell id="EGReewrqneR2WTqJuPq--5" value="/map" style="rounded=1;whiteSpace=wrap;html=1;fontSize=16;strokeColor=default;align=center;verticalAlign=middle;fontFamily=Helvetica;fontColor=default;fillColor=#CC00CC;" parent="1" vertex="1">
          <mxGeometry x="1910" y="269" width="120" height="60" as="geometry" />
        </mxCell>
        <mxCell id="HE2thZA_2mZJquEUhGNp-252" value="&lt;font style=&quot;font-size: 22px;&quot;&gt;GET /map&lt;/font&gt;&lt;span style=&quot;font-size: 22px;&quot;&gt;/:round/:&lt;/span&gt;&lt;span style=&quot;font-size: 22px; background-color: initial;&quot;&gt;code&lt;/span&gt;" style="rounded=0;whiteSpace=wrap;html=1;fontSize=16;fillColor=#CCFFCC;fontColor=#000000;" parent="1" vertex="1">
          <mxGeometry x="1520" y="958" width="180" height="90" as="geometry" />
        </mxCell>
        <mxCell id="HE2thZA_2mZJquEUhGNp-253" value="&lt;font style=&quot;font-size: 22px;&quot;&gt;POST /map&lt;/font&gt;&lt;span style=&quot;font-size: 22px;&quot;&gt;/:round/&lt;/span&gt;&lt;span style=&quot;font-size: 22px;&quot;&gt;:&lt;/span&gt;&lt;span style=&quot;background-color: initial; font-size: 22px;&quot;&gt;code&lt;/span&gt;&lt;span style=&quot;font-size: 22px;&quot;&gt;&lt;br&gt;&lt;/span&gt;" style="rounded=0;whiteSpace=wrap;html=1;fontSize=16;fontColor=#000000;fillColor=#FFFFCC;strokeColor=default;align=center;verticalAlign=middle;fontFamily=Helvetica;" parent="1" vertex="1">
          <mxGeometry x="1760" y="959" width="180" height="90" as="geometry" />
        </mxCell>
        <mxCell id="HE2thZA_2mZJquEUhGNp-254" value="&lt;font style=&quot;font-size: 22px;&quot;&gt;DELETE /map&lt;/font&gt;&lt;span style=&quot;font-size: 22px;&quot;&gt;/:round/&lt;/span&gt;&lt;span style=&quot;font-size: 22px;&quot;&gt;:&lt;/span&gt;&lt;span style=&quot;background-color: initial; font-size: 22px;&quot;&gt;code&lt;/span&gt;" style="rounded=0;whiteSpace=wrap;html=1;fontSize=16;fillColor=#FFCCCC;fontColor=#000000;" parent="1" vertex="1">
          <mxGeometry x="2230" y="959" width="180" height="90" as="geometry" />
        </mxCell>
        <mxCell id="HE2thZA_2mZJquEUhGNp-255" value="&lt;font style=&quot;font-size: 22px;&quot;&gt;PUT /map&lt;/font&gt;&lt;span style=&quot;font-size: 22px;&quot;&gt;/:round/&lt;/span&gt;&lt;span style=&quot;font-size: 22px;&quot;&gt;:&lt;/span&gt;&lt;span style=&quot;background-color: initial; font-size: 22px;&quot;&gt;code&lt;/span&gt;" style="rounded=0;whiteSpace=wrap;html=1;fontSize=16;fillColor=#99FFFF;fontColor=#000000;strokeColor=default;align=center;verticalAlign=middle;fontFamily=Helvetica;" parent="1" vertex="1">
          <mxGeometry x="2000" y="959" width="180" height="90" as="geometry" />
        </mxCell>
        <mxCell id="HE2thZA_2mZJquEUhGNp-279" style="edgeStyle=orthogonalEdgeStyle;rounded=0;orthogonalLoop=1;jettySize=auto;html=1;entryX=0.5;entryY=0;entryDx=0;entryDy=0;flowAnimation=1;strokeColor=#CCFFE6;" parent="1" source="HE2thZA_2mZJquEUhGNp-20" target="HE2thZA_2mZJquEUhGNp-252" edge="1">
          <mxGeometry relative="1" as="geometry" />
        </mxCell>
        <mxCell id="HE2thZA_2mZJquEUhGNp-280" style="edgeStyle=orthogonalEdgeStyle;rounded=0;orthogonalLoop=1;jettySize=auto;html=1;entryX=0.5;entryY=0;entryDx=0;entryDy=0;flowAnimation=1;fontColor=default;strokeColor=#FFFFCC;align=center;verticalAlign=middle;fontFamily=Helvetica;fontSize=11;labelBackgroundColor=default;endArrow=classic;" parent="1" source="HE2thZA_2mZJquEUhGNp-23" target="HE2thZA_2mZJquEUhGNp-253" edge="1">
          <mxGeometry relative="1" as="geometry" />
        </mxCell>
        <mxCell id="HE2thZA_2mZJquEUhGNp-281" style="edgeStyle=orthogonalEdgeStyle;rounded=0;orthogonalLoop=1;jettySize=auto;html=1;entryX=0.5;entryY=0;entryDx=0;entryDy=0;flowAnimation=1;strokeColor=#99FFFF;align=center;verticalAlign=middle;fontFamily=Helvetica;fontSize=11;fontColor=#000000;labelBackgroundColor=default;endArrow=classic;" parent="1" source="HE2thZA_2mZJquEUhGNp-27" target="HE2thZA_2mZJquEUhGNp-255" edge="1">
          <mxGeometry relative="1" as="geometry" />
        </mxCell>
        <mxCell id="HE2thZA_2mZJquEUhGNp-282" style="edgeStyle=orthogonalEdgeStyle;rounded=0;orthogonalLoop=1;jettySize=auto;html=1;entryX=0.5;entryY=0;entryDx=0;entryDy=0;flowAnimation=1;strokeColor=#FFCCCC;" parent="1" source="HE2thZA_2mZJquEUhGNp-32" target="HE2thZA_2mZJquEUhGNp-254" edge="1">
          <mxGeometry relative="1" as="geometry" />
        </mxCell>
        <mxCell id="EGReewrqneR2WTqJuPq--34" style="edgeStyle=orthogonalEdgeStyle;rounded=0;orthogonalLoop=1;jettySize=auto;html=1;entryX=1;entryY=0.5;entryDx=0;entryDy=0;endArrow=none;endFill=0;" parent="1" source="EGReewrqneR2WTqJuPq--10" target="EGReewrqneR2WTqJuPq--4" edge="1">
          <mxGeometry relative="1" as="geometry" />
        </mxCell>
        <mxCell id="EGReewrqneR2WTqJuPq--59" style="edgeStyle=orthogonalEdgeStyle;rounded=0;orthogonalLoop=1;jettySize=auto;html=1;entryX=1;entryY=0.5;entryDx=0;entryDy=0;endArrow=none;endFill=0;" parent="1" source="EGReewrqneR2WTqJuPq--10" target="EGReewrqneR2WTqJuPq--58" edge="1">
          <mxGeometry relative="1" as="geometry" />
        </mxCell>
        <mxCell id="PJESGeksHoikqEn4IFh8-21" style="edgeStyle=orthogonalEdgeStyle;rounded=0;orthogonalLoop=1;jettySize=auto;html=1;entryX=1;entryY=0.5;entryDx=0;entryDy=0;endArrow=none;endFill=0;" parent="1" source="EGReewrqneR2WTqJuPq--10" target="EGReewrqneR2WTqJuPq--3" edge="1">
          <mxGeometry relative="1" as="geometry" />
        </mxCell>
        <mxCell id="EGReewrqneR2WTqJuPq--10" value="/player" style="rounded=1;whiteSpace=wrap;html=1;fontSize=16;strokeColor=default;align=center;verticalAlign=middle;fontFamily=Helvetica;fontColor=#000000;fillColor=#A9C4EB;" parent="1" vertex="1">
          <mxGeometry x="2380" y="-455" width="120" height="60" as="geometry" />
        </mxCell>
        <mxCell id="HE2thZA_2mZJquEUhGNp-245" value="&lt;font style=&quot;font-size: 22px;&quot;&gt;GET /player&lt;/font&gt;" style="rounded=0;whiteSpace=wrap;html=1;fontSize=16;fillColor=#CCFFCC;fontColor=#000000;" parent="1" vertex="1">
          <mxGeometry x="1570" y="-695" width="180" height="90" as="geometry" />
        </mxCell>
        <mxCell id="HE2thZA_2mZJquEUhGNp-273" style="edgeStyle=orthogonalEdgeStyle;rounded=0;orthogonalLoop=1;jettySize=auto;html=1;entryX=1;entryY=0.5;entryDx=0;entryDy=0;flowAnimation=1;strokeColor=#CCFFE6;" parent="1" source="HE2thZA_2mZJquEUhGNp-2" target="HE2thZA_2mZJquEUhGNp-245" edge="1">
          <mxGeometry relative="1" as="geometry" />
        </mxCell>
        <mxCell id="HE2thZA_2mZJquEUhGNp-77" style="edgeStyle=orthogonalEdgeStyle;rounded=0;orthogonalLoop=1;jettySize=auto;html=1;entryX=1;entryY=0.5;entryDx=0;entryDy=0;endArrow=none;endFill=0;" parent="1" source="EGReewrqneR2WTqJuPq--3" target="HE2thZA_2mZJquEUhGNp-2" edge="1">
          <mxGeometry relative="1" as="geometry" />
        </mxCell>
        <mxCell id="EGReewrqneR2WTqJuPq--3" value="/list" style="rounded=0;whiteSpace=wrap;html=1;fontSize=16;strokeColor=default;align=center;verticalAlign=middle;fontFamily=Helvetica;fontColor=#ffffff;fillColor=default;" parent="1" vertex="1">
          <mxGeometry x="2130" y="-680" width="120" height="60" as="geometry" />
        </mxCell>
        <mxCell id="HE2thZA_2mZJquEUhGNp-2" value="Params" style="swimlane;fontStyle=0;childLayout=stackLayout;horizontal=1;startSize=30;horizontalStack=0;resizeParent=1;resizeParentMax=0;resizeLast=0;collapsible=1;marginBottom=0;whiteSpace=wrap;html=1;fontSize=16;" parent="1" vertex="1">
          <mxGeometry x="1880" y="-710" width="140" height="120" as="geometry" />
        </mxCell>
        <mxCell id="HE2thZA_2mZJquEUhGNp-3" value="name?: string" style="text;strokeColor=none;fillColor=none;align=left;verticalAlign=middle;spacingLeft=4;spacingRight=4;overflow=hidden;points=[[0,0.5],[1,0.5]];portConstraint=eastwest;rotatable=0;whiteSpace=wrap;html=1;fontSize=16;" parent="HE2thZA_2mZJquEUhGNp-2" vertex="1">
          <mxGeometry y="30" width="140" height="30" as="geometry" />
        </mxCell>
        <mxCell id="HE2thZA_2mZJquEUhGNp-4" value="sort?: string" style="text;strokeColor=none;fillColor=none;align=left;verticalAlign=middle;spacingLeft=4;spacingRight=4;overflow=hidden;points=[[0,0.5],[1,0.5]];portConstraint=eastwest;rotatable=0;whiteSpace=wrap;html=1;fontSize=16;" parent="HE2thZA_2mZJquEUhGNp-2" vertex="1">
          <mxGeometry y="60" width="140" height="30" as="geometry" />
        </mxCell>
        <mxCell id="HE2thZA_2mZJquEUhGNp-5" value="limit?: number" style="text;strokeColor=none;fillColor=none;align=left;verticalAlign=middle;spacingLeft=4;spacingRight=4;overflow=hidden;points=[[0,0.5],[1,0.5]];portConstraint=eastwest;rotatable=0;whiteSpace=wrap;html=1;fontSize=16;" parent="HE2thZA_2mZJquEUhGNp-2" vertex="1">
          <mxGeometry y="90" width="140" height="30" as="geometry" />
        </mxCell>
        <mxCell id="HE2thZA_2mZJquEUhGNp-246" value="&lt;font style=&quot;font-size: 22px;&quot;&gt;POST /player&lt;/font&gt;" style="rounded=0;whiteSpace=wrap;html=1;fontSize=16;fontColor=#000000;fillColor=#FFFFCC;strokeColor=default;align=center;verticalAlign=middle;fontFamily=Helvetica;" parent="1" vertex="1">
          <mxGeometry x="1570" y="-470" width="180" height="90" as="geometry" />
        </mxCell>
        <mxCell id="HE2thZA_2mZJquEUhGNp-274" style="edgeStyle=orthogonalEdgeStyle;rounded=0;orthogonalLoop=1;jettySize=auto;html=1;entryX=1;entryY=0.5;entryDx=0;entryDy=0;flowAnimation=1;fontColor=default;strokeColor=#FFFFCC;align=center;verticalAlign=middle;fontFamily=Helvetica;fontSize=11;labelBackgroundColor=default;endArrow=classic;" parent="1" source="HE2thZA_2mZJquEUhGNp-6" target="HE2thZA_2mZJquEUhGNp-246" edge="1">
          <mxGeometry relative="1" as="geometry" />
        </mxCell>
        <mxCell id="HE2thZA_2mZJquEUhGNp-78" style="edgeStyle=orthogonalEdgeStyle;rounded=0;orthogonalLoop=1;jettySize=auto;html=1;entryX=1;entryY=0.5;entryDx=0;entryDy=0;endArrow=none;endFill=0;" parent="1" source="EGReewrqneR2WTqJuPq--58" target="HE2thZA_2mZJquEUhGNp-6" edge="1">
          <mxGeometry relative="1" as="geometry" />
        </mxCell>
        <mxCell id="EGReewrqneR2WTqJuPq--58" value="/register" style="rounded=0;whiteSpace=wrap;html=1;fontSize=16;strokeColor=default;align=center;verticalAlign=middle;fontFamily=Helvetica;fontColor=#ffffff;fillColor=default;" parent="1" vertex="1">
          <mxGeometry x="2130" y="-455" width="120" height="60" as="geometry" />
        </mxCell>
        <mxCell id="HE2thZA_2mZJquEUhGNp-6" value="Params" style="swimlane;fontStyle=0;childLayout=stackLayout;horizontal=1;startSize=30;horizontalStack=0;resizeParent=1;resizeParentMax=0;resizeLast=0;collapsible=1;marginBottom=0;whiteSpace=wrap;html=1;fontSize=16;" parent="1" vertex="1">
          <mxGeometry x="1880" y="-455" width="140" height="60" as="geometry" />
        </mxCell>
        <mxCell id="HE2thZA_2mZJquEUhGNp-193" value="" style="shape=ellipse;html=1;dashed=0;whiteSpace=wrap;aspect=fixed;perimeter=ellipsePerimeter;fillColor=#FFCCCC;fontSize=16;" parent="1" vertex="1">
          <mxGeometry x="2177.5" y="-490" width="30" height="30" as="geometry" />
        </mxCell>
        <mxCell id="HE2thZA_2mZJquEUhGNp-194" value="" style="verticalLabelPosition=bottom;verticalAlign=top;html=1;shape=mxgraph.basic.x;fillColor=#FF3333;fontSize=16;" parent="1" vertex="1">
          <mxGeometry x="2180" y="-485" width="25" height="20" as="geometry" />
        </mxCell>
        <mxCell id="HE2thZA_2mZJquEUhGNp-247" value="&lt;font style=&quot;font-size: 22px;&quot;&gt;DELETE /player&lt;/font&gt;" style="rounded=0;whiteSpace=wrap;html=1;fontSize=16;fillColor=#FFCCCC;fontColor=#000000;" parent="1" vertex="1">
          <mxGeometry x="1570" y="-235" width="180" height="90" as="geometry" />
        </mxCell>
        <mxCell id="HE2thZA_2mZJquEUhGNp-275" style="edgeStyle=orthogonalEdgeStyle;rounded=0;orthogonalLoop=1;jettySize=auto;html=1;entryX=1;entryY=0.5;entryDx=0;entryDy=0;flowAnimation=1;strokeColor=#FFCCCC;" parent="1" source="HE2thZA_2mZJquEUhGNp-10" target="HE2thZA_2mZJquEUhGNp-247" edge="1">
          <mxGeometry relative="1" as="geometry" />
        </mxCell>
        <mxCell id="HE2thZA_2mZJquEUhGNp-79" style="edgeStyle=orthogonalEdgeStyle;rounded=0;orthogonalLoop=1;jettySize=auto;html=1;entryX=1;entryY=0.5;entryDx=0;entryDy=0;endArrow=none;endFill=0;" parent="1" source="EGReewrqneR2WTqJuPq--4" target="HE2thZA_2mZJquEUhGNp-10" edge="1">
          <mxGeometry relative="1" as="geometry" />
        </mxCell>
        <mxCell id="EGReewrqneR2WTqJuPq--4" value="/leave" style="rounded=0;whiteSpace=wrap;html=1;fontSize=16;strokeColor=default;align=center;verticalAlign=middle;fontFamily=Helvetica;fontColor=#ffffff;fillColor=default;" parent="1" vertex="1">
          <mxGeometry x="2130" y="-220" width="120" height="60" as="geometry" />
        </mxCell>
        <mxCell id="HE2thZA_2mZJquEUhGNp-10" value="Params" style="swimlane;fontStyle=0;childLayout=stackLayout;horizontal=1;startSize=30;horizontalStack=0;resizeParent=1;resizeParentMax=0;resizeLast=0;collapsible=1;marginBottom=0;whiteSpace=wrap;html=1;fontSize=16;" parent="1" vertex="1">
          <mxGeometry x="1880" y="-220" width="140" height="60" as="geometry" />
        </mxCell>
        <mxCell id="HE2thZA_2mZJquEUhGNp-116" value="" style="shape=ellipse;html=1;dashed=0;whiteSpace=wrap;aspect=fixed;perimeter=ellipsePerimeter;fillColor=#FFFFCC;fontSize=16;" parent="1" vertex="1">
          <mxGeometry x="2220" y="-260" width="30" height="30" as="geometry" />
        </mxCell>
        <mxCell id="EGReewrqneR2WTqJuPq--9" value="/matches" style="rounded=1;whiteSpace=wrap;html=1;fontSize=16;strokeColor=default;align=center;verticalAlign=middle;fontFamily=Helvetica;fontColor=#000000;fillColor=#FFCCFF;" parent="1" vertex="1">
          <mxGeometry x="3500" y="-457.5" width="120" height="60" as="geometry" />
        </mxCell>
        <mxCell id="HE2thZA_2mZJquEUhGNp-256" value="&lt;font style=&quot;font-size: 22px;&quot;&gt;GET /matches/:round&lt;/font&gt;" style="rounded=0;whiteSpace=wrap;html=1;fontSize=16;fillColor=#CCFFCC;fontColor=#000000;" parent="1" vertex="1">
          <mxGeometry x="4220" y="-695" width="180" height="90" as="geometry" />
        </mxCell>
        <mxCell id="HE2thZA_2mZJquEUhGNp-257" value="&lt;font style=&quot;font-size: 22px;&quot;&gt;PUT /matches&lt;/font&gt;" style="rounded=0;whiteSpace=wrap;html=1;fontSize=16;fillColor=#99FFFF;fontColor=#000000;strokeColor=default;align=center;verticalAlign=middle;fontFamily=Helvetica;" parent="1" vertex="1">
          <mxGeometry x="4220" y="-215" width="180" height="90" as="geometry" />
        </mxCell>
        <mxCell id="HE2thZA_2mZJquEUhGNp-283" style="edgeStyle=orthogonalEdgeStyle;rounded=0;orthogonalLoop=1;jettySize=auto;html=1;flowAnimation=1;strokeColor=#CCFFE6;" parent="1" source="HE2thZA_2mZJquEUhGNp-35" target="HE2thZA_2mZJquEUhGNp-256" edge="1">
          <mxGeometry relative="1" as="geometry" />
        </mxCell>
        <mxCell id="HE2thZA_2mZJquEUhGNp-284" style="edgeStyle=orthogonalEdgeStyle;rounded=0;orthogonalLoop=1;jettySize=auto;html=1;entryX=0;entryY=0.5;entryDx=0;entryDy=0;flowAnimation=1;strokeColor=#99FFFF;align=center;verticalAlign=middle;fontFamily=Helvetica;fontSize=11;fontColor=#000000;labelBackgroundColor=default;endArrow=classic;" parent="1" source="HE2thZA_2mZJquEUhGNp-40" target="HE2thZA_2mZJquEUhGNp-257" edge="1">
          <mxGeometry relative="1" as="geometry" />
        </mxCell>
        <mxCell id="HE2thZA_2mZJquEUhGNp-87" style="edgeStyle=orthogonalEdgeStyle;rounded=0;orthogonalLoop=1;jettySize=auto;html=1;entryX=0;entryY=0.5;entryDx=0;entryDy=0;endArrow=none;endFill=0;" parent="1" source="EGReewrqneR2WTqJuPq--19" target="HE2thZA_2mZJquEUhGNp-35" edge="1">
          <mxGeometry relative="1" as="geometry" />
        </mxCell>
        <mxCell id="EGReewrqneR2WTqJuPq--19" value="/get" style="rounded=0;whiteSpace=wrap;html=1;fontSize=16;strokeColor=default;align=center;verticalAlign=middle;fontFamily=Helvetica;fontColor=#ffffff;fillColor=default;" parent="1" vertex="1">
          <mxGeometry x="3730" y="-680" width="120" height="60" as="geometry" />
        </mxCell>
        <mxCell id="HE2thZA_2mZJquEUhGNp-35" value="Params" style="swimlane;fontStyle=0;childLayout=stackLayout;horizontal=1;startSize=30;horizontalStack=0;resizeParent=1;resizeParentMax=0;resizeLast=0;collapsible=1;marginBottom=0;whiteSpace=wrap;html=1;fontSize=16;" parent="1" vertex="1">
          <mxGeometry x="3955" y="-680" width="140" height="60" as="geometry" />
        </mxCell>
        <mxCell id="HE2thZA_2mZJquEUhGNp-36" value="round: string" style="text;strokeColor=none;fillColor=none;align=left;verticalAlign=middle;spacingLeft=4;spacingRight=4;overflow=hidden;points=[[0,0.5],[1,0.5]];portConstraint=eastwest;rotatable=0;whiteSpace=wrap;html=1;fontSize=16;" parent="HE2thZA_2mZJquEUhGNp-35" vertex="1">
          <mxGeometry y="30" width="140" height="30" as="geometry" />
        </mxCell>
        <mxCell id="HE2thZA_2mZJquEUhGNp-89" style="edgeStyle=orthogonalEdgeStyle;rounded=0;orthogonalLoop=1;jettySize=auto;html=1;entryX=0;entryY=0.5;entryDx=0;entryDy=0;endArrow=none;endFill=0;" parent="1" source="EGReewrqneR2WTqJuPq--21" target="HE2thZA_2mZJquEUhGNp-40" edge="1">
          <mxGeometry relative="1" as="geometry" />
        </mxCell>
        <mxCell id="HE2thZA_2mZJquEUhGNp-40" value="Params" style="swimlane;fontStyle=0;childLayout=stackLayout;horizontal=1;startSize=30;horizontalStack=0;resizeParent=1;resizeParentMax=0;resizeLast=0;collapsible=1;marginBottom=0;whiteSpace=wrap;html=1;fontSize=16;" parent="1" vertex="1">
          <mxGeometry x="3955" y="-200" width="140" height="60" as="geometry" />
        </mxCell>
        <mxCell id="HE2thZA_2mZJquEUhGNp-146" value="" style="shape=ellipse;html=1;dashed=0;whiteSpace=wrap;aspect=fixed;perimeter=ellipsePerimeter;fillColor=#FFCCCC;fontSize=16;" parent="1" vertex="1">
          <mxGeometry x="3775" y="-235" width="30" height="30" as="geometry" />
        </mxCell>
        <mxCell id="PJESGeksHoikqEn4IFh8-27" value="" style="edgeStyle=orthogonalEdgeStyle;rounded=0;orthogonalLoop=1;jettySize=auto;html=1;entryX=0;entryY=0.5;entryDx=0;entryDy=0;endArrow=none;endFill=0;" parent="1" source="EGReewrqneR2WTqJuPq--9" target="EGReewrqneR2WTqJuPq--19" edge="1">
          <mxGeometry relative="1" as="geometry">
            <mxPoint x="3620" y="-412.5" as="sourcePoint" />
            <mxPoint x="3790" y="-302.5" as="targetPoint" />
          </mxGeometry>
        </mxCell>
        <mxCell id="PJESGeksHoikqEn4IFh8-28" value="" style="edgeStyle=orthogonalEdgeStyle;rounded=0;orthogonalLoop=1;jettySize=auto;html=1;endArrow=none;endFill=0;entryX=0;entryY=0.5;entryDx=0;entryDy=0;" parent="1" source="EGReewrqneR2WTqJuPq--9" target="EGReewrqneR2WTqJuPq--21" edge="1">
          <mxGeometry relative="1" as="geometry">
            <mxPoint x="3620" y="-412.5" as="sourcePoint" />
            <mxPoint x="3790" y="-552.5" as="targetPoint" />
          </mxGeometry>
        </mxCell>
        <mxCell id="EGReewrqneR2WTqJuPq--21" value="/fetch" style="rounded=0;whiteSpace=wrap;html=1;fontSize=16;strokeColor=default;align=center;verticalAlign=middle;fontFamily=Helvetica;fontColor=#ffffff;fillColor=default;" parent="1" vertex="1">
          <mxGeometry x="3730" y="-200" width="120" height="60" as="geometry" />
        </mxCell>
        <mxCell id="HE2thZA_2mZJquEUhGNp-102" style="edgeStyle=orthogonalEdgeStyle;rounded=0;orthogonalLoop=1;jettySize=auto;html=1;entryX=0.5;entryY=0;entryDx=0;entryDy=0;endArrow=none;endFill=0;exitX=0.5;exitY=1;exitDx=0;exitDy=0;" parent="1" source="EGReewrqneR2WTqJuPq--81" target="HE2thZA_2mZJquEUhGNp-74" edge="1">
          <mxGeometry relative="1" as="geometry">
            <mxPoint x="4760" y="469.99999999999955" as="sourcePoint" />
          </mxGeometry>
        </mxCell>
        <mxCell id="HE2thZA_2mZJquEUhGNp-74" value="Params" style="swimlane;fontStyle=0;childLayout=stackLayout;horizontal=1;startSize=30;horizontalStack=0;resizeParent=1;resizeParentMax=0;resizeLast=0;collapsible=1;marginBottom=0;whiteSpace=wrap;html=1;fontSize=16;" parent="1" vertex="1">
          <mxGeometry x="4810" y="570" width="140" height="60" as="geometry" />
        </mxCell>
        <mxCell id="HE2thZA_2mZJquEUhGNp-101" style="edgeStyle=orthogonalEdgeStyle;rounded=0;orthogonalLoop=1;jettySize=auto;html=1;entryX=0.5;entryY=0;entryDx=0;entryDy=0;endArrow=none;endFill=0;" parent="1" source="EGReewrqneR2WTqJuPq--72" target="HE2thZA_2mZJquEUhGNp-68" edge="1">
          <mxGeometry relative="1" as="geometry" />
        </mxCell>
        <mxCell id="EGReewrqneR2WTqJuPq--72" value="/delete" style="rounded=0;whiteSpace=wrap;html=1;fontSize=16;strokeColor=default;align=center;verticalAlign=middle;fontFamily=Helvetica;fontColor=#ffffff;fillColor=default;" parent="1" vertex="1">
          <mxGeometry x="4440" y="410" width="120" height="60" as="geometry" />
        </mxCell>
        <mxCell id="HE2thZA_2mZJquEUhGNp-68" value="Params" style="swimlane;fontStyle=0;childLayout=stackLayout;horizontal=1;startSize=30;horizontalStack=0;resizeParent=1;resizeParentMax=0;resizeLast=0;collapsible=1;marginBottom=0;whiteSpace=wrap;html=1;fontSize=16;" parent="1" vertex="1">
          <mxGeometry x="4430" y="570" width="140" height="60" as="geometry" />
        </mxCell>
        <mxCell id="HE2thZA_2mZJquEUhGNp-69" value="event: string" style="text;strokeColor=none;fillColor=none;align=left;verticalAlign=middle;spacingLeft=4;spacingRight=4;overflow=hidden;points=[[0,0.5],[1,0.5]];portConstraint=eastwest;rotatable=0;whiteSpace=wrap;html=1;fontSize=16;" parent="HE2thZA_2mZJquEUhGNp-68" vertex="1">
          <mxGeometry y="30" width="140" height="30" as="geometry" />
        </mxCell>
        <mxCell id="HE2thZA_2mZJquEUhGNp-171" value="" style="shape=ellipse;html=1;dashed=0;whiteSpace=wrap;aspect=fixed;perimeter=ellipsePerimeter;fillColor=#FFCCCC;fontSize=16;" parent="1" vertex="1">
          <mxGeometry x="4400" y="425" width="30" height="30" as="geometry" />
        </mxCell>
        <mxCell id="HE2thZA_2mZJquEUhGNp-100" style="edgeStyle=orthogonalEdgeStyle;rounded=0;orthogonalLoop=1;jettySize=auto;html=1;entryX=0.5;entryY=0;entryDx=0;entryDy=0;endArrow=none;endFill=0;" parent="1" source="EGReewrqneR2WTqJuPq--71" target="HE2thZA_2mZJquEUhGNp-66" edge="1">
          <mxGeometry relative="1" as="geometry" />
        </mxCell>
        <mxCell id="EGReewrqneR2WTqJuPq--71" value="/update" style="rounded=0;whiteSpace=wrap;html=1;fontSize=16;strokeColor=default;align=center;verticalAlign=middle;fontFamily=Helvetica;fontColor=#ffffff;fillColor=default;" parent="1" vertex="1">
          <mxGeometry x="4200" y="410" width="120" height="60" as="geometry" />
        </mxCell>
        <mxCell id="HE2thZA_2mZJquEUhGNp-66" value="Params" style="swimlane;fontStyle=0;childLayout=stackLayout;horizontal=1;startSize=30;horizontalStack=0;resizeParent=1;resizeParentMax=0;resizeLast=0;collapsible=1;marginBottom=0;whiteSpace=wrap;html=1;fontSize=16;" parent="1" vertex="1">
          <mxGeometry x="4180.5" y="569" width="159" height="240" as="geometry" />
        </mxCell>
        <mxCell id="HE2thZA_2mZJquEUhGNp-67" value="event: string" style="text;strokeColor=none;fillColor=none;align=left;verticalAlign=middle;spacingLeft=4;spacingRight=4;overflow=hidden;points=[[0,0.5],[1,0.5]];portConstraint=eastwest;rotatable=0;whiteSpace=wrap;html=1;fontSize=16;" parent="HE2thZA_2mZJquEUhGNp-66" vertex="1">
          <mxGeometry y="30" width="159" height="30" as="geometry" />
        </mxCell>
        <mxCell id="-d9S9vMfLmMUD7XQ1lsK-8" value="start_day: number" style="text;strokeColor=none;fillColor=none;align=left;verticalAlign=middle;spacingLeft=4;spacingRight=4;overflow=hidden;points=[[0,0.5],[1,0.5]];portConstraint=eastwest;rotatable=0;whiteSpace=wrap;html=1;fontSize=16;" parent="HE2thZA_2mZJquEUhGNp-66" vertex="1">
          <mxGeometry y="60" width="159" height="30" as="geometry" />
        </mxCell>
        <mxCell id="-d9S9vMfLmMUD7XQ1lsK-9" value="start_month: number" style="text;strokeColor=none;fillColor=none;align=left;verticalAlign=middle;spacingLeft=4;spacingRight=4;overflow=hidden;points=[[0,0.5],[1,0.5]];portConstraint=eastwest;rotatable=0;whiteSpace=wrap;html=1;fontSize=16;" parent="HE2thZA_2mZJquEUhGNp-66" vertex="1">
          <mxGeometry y="90" width="159" height="30" as="geometry" />
        </mxCell>
        <mxCell id="-d9S9vMfLmMUD7XQ1lsK-14" value="start_year: number" style="text;strokeColor=none;fillColor=none;align=left;verticalAlign=middle;spacingLeft=4;spacingRight=4;overflow=hidden;points=[[0,0.5],[1,0.5]];portConstraint=eastwest;rotatable=0;whiteSpace=wrap;html=1;fontSize=16;" parent="HE2thZA_2mZJquEUhGNp-66" vertex="1">
          <mxGeometry y="120" width="159" height="30" as="geometry" />
        </mxCell>
        <mxCell id="-d9S9vMfLmMUD7XQ1lsK-10" value="end_day: number" style="text;strokeColor=none;fillColor=none;align=left;verticalAlign=middle;spacingLeft=4;spacingRight=4;overflow=hidden;points=[[0,0.5],[1,0.5]];portConstraint=eastwest;rotatable=0;whiteSpace=wrap;html=1;fontSize=16;" parent="HE2thZA_2mZJquEUhGNp-66" vertex="1">
          <mxGeometry y="150" width="159" height="30" as="geometry" />
        </mxCell>
        <mxCell id="-d9S9vMfLmMUD7XQ1lsK-11" value="end_month: number" style="text;strokeColor=none;fillColor=none;align=left;verticalAlign=middle;spacingLeft=4;spacingRight=4;overflow=hidden;points=[[0,0.5],[1,0.5]];portConstraint=eastwest;rotatable=0;whiteSpace=wrap;html=1;fontSize=16;" parent="HE2thZA_2mZJquEUhGNp-66" vertex="1">
          <mxGeometry y="180" width="159" height="30" as="geometry" />
        </mxCell>
        <mxCell id="-d9S9vMfLmMUD7XQ1lsK-15" value="end_year: number" style="text;strokeColor=none;fillColor=none;align=left;verticalAlign=middle;spacingLeft=4;spacingRight=4;overflow=hidden;points=[[0,0.5],[1,0.5]];portConstraint=eastwest;rotatable=0;whiteSpace=wrap;html=1;fontSize=16;" parent="HE2thZA_2mZJquEUhGNp-66" vertex="1">
          <mxGeometry y="210" width="159" height="30" as="geometry" />
        </mxCell>
        <mxCell id="HE2thZA_2mZJquEUhGNp-168" value="" style="shape=ellipse;html=1;dashed=0;whiteSpace=wrap;aspect=fixed;perimeter=ellipsePerimeter;fillColor=#FFCCCC;fontSize=16;" parent="1" vertex="1">
          <mxGeometry x="4160" y="425" width="30" height="30" as="geometry" />
        </mxCell>
        <mxCell id="HE2thZA_2mZJquEUhGNp-99" style="edgeStyle=orthogonalEdgeStyle;rounded=0;orthogonalLoop=1;jettySize=auto;html=1;entryX=0.5;entryY=0;entryDx=0;entryDy=0;endArrow=none;endFill=0;" parent="1" source="EGReewrqneR2WTqJuPq--70" target="HE2thZA_2mZJquEUhGNp-64" edge="1">
          <mxGeometry relative="1" as="geometry" />
        </mxCell>
        <mxCell id="EGReewrqneR2WTqJuPq--70" value="/create" style="rounded=0;whiteSpace=wrap;html=1;fontSize=16;strokeColor=default;align=center;verticalAlign=middle;fontFamily=Helvetica;fontColor=#ffffff;fillColor=default;" parent="1" vertex="1">
          <mxGeometry x="3960" y="410" width="120" height="60" as="geometry" />
        </mxCell>
        <mxCell id="HE2thZA_2mZJquEUhGNp-64" value="Params" style="swimlane;fontStyle=0;childLayout=stackLayout;horizontal=1;startSize=30;horizontalStack=0;resizeParent=1;resizeParentMax=0;resizeLast=0;collapsible=1;marginBottom=0;whiteSpace=wrap;html=1;fontSize=16;" parent="1" vertex="1">
          <mxGeometry x="3940.5" y="569" width="159" height="240" as="geometry" />
        </mxCell>
        <mxCell id="HE2thZA_2mZJquEUhGNp-65" value="event: string" style="text;strokeColor=none;fillColor=none;align=left;verticalAlign=middle;spacingLeft=4;spacingRight=4;overflow=hidden;points=[[0,0.5],[1,0.5]];portConstraint=eastwest;rotatable=0;whiteSpace=wrap;html=1;fontSize=16;" parent="HE2thZA_2mZJquEUhGNp-64" vertex="1">
          <mxGeometry y="30" width="159" height="30" as="geometry" />
        </mxCell>
        <mxCell id="-d9S9vMfLmMUD7XQ1lsK-4" value="start_day: number" style="text;strokeColor=none;fillColor=none;align=left;verticalAlign=middle;spacingLeft=4;spacingRight=4;overflow=hidden;points=[[0,0.5],[1,0.5]];portConstraint=eastwest;rotatable=0;whiteSpace=wrap;html=1;fontSize=16;" parent="HE2thZA_2mZJquEUhGNp-64" vertex="1">
          <mxGeometry y="60" width="159" height="30" as="geometry" />
        </mxCell>
        <mxCell id="-d9S9vMfLmMUD7XQ1lsK-6" value="start_month: number" style="text;strokeColor=none;fillColor=none;align=left;verticalAlign=middle;spacingLeft=4;spacingRight=4;overflow=hidden;points=[[0,0.5],[1,0.5]];portConstraint=eastwest;rotatable=0;whiteSpace=wrap;html=1;fontSize=16;" parent="HE2thZA_2mZJquEUhGNp-64" vertex="1">
          <mxGeometry y="90" width="159" height="30" as="geometry" />
        </mxCell>
        <mxCell id="-d9S9vMfLmMUD7XQ1lsK-12" value="start_year: number" style="text;strokeColor=none;fillColor=none;align=left;verticalAlign=middle;spacingLeft=4;spacingRight=4;overflow=hidden;points=[[0,0.5],[1,0.5]];portConstraint=eastwest;rotatable=0;whiteSpace=wrap;html=1;fontSize=16;" parent="HE2thZA_2mZJquEUhGNp-64" vertex="1">
          <mxGeometry y="120" width="159" height="30" as="geometry" />
        </mxCell>
        <mxCell id="-d9S9vMfLmMUD7XQ1lsK-7" value="end_day: number" style="text;strokeColor=none;fillColor=none;align=left;verticalAlign=middle;spacingLeft=4;spacingRight=4;overflow=hidden;points=[[0,0.5],[1,0.5]];portConstraint=eastwest;rotatable=0;whiteSpace=wrap;html=1;fontSize=16;" parent="HE2thZA_2mZJquEUhGNp-64" vertex="1">
          <mxGeometry y="150" width="159" height="30" as="geometry" />
        </mxCell>
        <mxCell id="-d9S9vMfLmMUD7XQ1lsK-5" value="end_month: number" style="text;strokeColor=none;fillColor=none;align=left;verticalAlign=middle;spacingLeft=4;spacingRight=4;overflow=hidden;points=[[0,0.5],[1,0.5]];portConstraint=eastwest;rotatable=0;whiteSpace=wrap;html=1;fontSize=16;" parent="HE2thZA_2mZJquEUhGNp-64" vertex="1">
          <mxGeometry y="180" width="159" height="30" as="geometry" />
        </mxCell>
        <mxCell id="-d9S9vMfLmMUD7XQ1lsK-13" value="end_year: number" style="text;strokeColor=none;fillColor=none;align=left;verticalAlign=middle;spacingLeft=4;spacingRight=4;overflow=hidden;points=[[0,0.5],[1,0.5]];portConstraint=eastwest;rotatable=0;whiteSpace=wrap;html=1;fontSize=16;" parent="HE2thZA_2mZJquEUhGNp-64" vertex="1">
          <mxGeometry y="210" width="159" height="30" as="geometry" />
        </mxCell>
        <mxCell id="HE2thZA_2mZJquEUhGNp-211" value="" style="shape=ellipse;html=1;dashed=0;whiteSpace=wrap;aspect=fixed;perimeter=ellipsePerimeter;fillColor=#FFCCCC;fontSize=16;" parent="1" vertex="1">
          <mxGeometry x="3920" y="425" width="30" height="30" as="geometry" />
        </mxCell>
        <mxCell id="HE2thZA_2mZJquEUhGNp-86" style="edgeStyle=orthogonalEdgeStyle;rounded=0;orthogonalLoop=1;jettySize=auto;html=1;entryX=0.5;entryY=0;entryDx=0;entryDy=0;endArrow=none;endFill=0;" parent="1" source="EGReewrqneR2WTqJuPq--16" target="HE2thZA_2mZJquEUhGNp-32" edge="1">
          <mxGeometry relative="1" as="geometry" />
        </mxCell>
        <mxCell id="EGReewrqneR2WTqJuPq--16" value="/delete" style="rounded=0;whiteSpace=wrap;html=1;fontSize=16;strokeColor=default;align=center;verticalAlign=middle;fontFamily=Helvetica;fontColor=#ffffff;fillColor=default;" parent="1" vertex="1">
          <mxGeometry x="2260" y="409" width="120" height="60" as="geometry" />
        </mxCell>
        <mxCell id="HE2thZA_2mZJquEUhGNp-32" value="Params" style="swimlane;fontStyle=0;childLayout=stackLayout;horizontal=1;startSize=30;horizontalStack=0;resizeParent=1;resizeParentMax=0;resizeLast=0;collapsible=1;marginBottom=0;whiteSpace=wrap;html=1;fontSize=16;" parent="1" vertex="1">
          <mxGeometry x="2250" y="569" width="140" height="90" as="geometry" />
        </mxCell>
        <mxCell id="HE2thZA_2mZJquEUhGNp-33" value="round: string" style="text;strokeColor=none;fillColor=none;align=left;verticalAlign=middle;spacingLeft=4;spacingRight=4;overflow=hidden;points=[[0,0.5],[1,0.5]];portConstraint=eastwest;rotatable=0;whiteSpace=wrap;html=1;fontSize=16;" parent="HE2thZA_2mZJquEUhGNp-32" vertex="1">
          <mxGeometry y="30" width="140" height="30" as="geometry" />
        </mxCell>
        <mxCell id="HE2thZA_2mZJquEUhGNp-34" value="map_code: string" style="text;strokeColor=none;fillColor=none;align=left;verticalAlign=middle;spacingLeft=4;spacingRight=4;overflow=hidden;points=[[0,0.5],[1,0.5]];portConstraint=eastwest;rotatable=0;whiteSpace=wrap;html=1;fontSize=16;" parent="HE2thZA_2mZJquEUhGNp-32" vertex="1">
          <mxGeometry y="60" width="140" height="30" as="geometry" />
        </mxCell>
        <mxCell id="HE2thZA_2mZJquEUhGNp-138" value="" style="shape=ellipse;html=1;dashed=0;whiteSpace=wrap;aspect=fixed;perimeter=ellipsePerimeter;fillColor=#FFCCCC;fontSize=16;" parent="1" vertex="1">
          <mxGeometry x="2210" y="424" width="30" height="30" as="geometry" />
        </mxCell>
        <mxCell id="HE2thZA_2mZJquEUhGNp-85" style="edgeStyle=orthogonalEdgeStyle;rounded=0;orthogonalLoop=1;jettySize=auto;html=1;entryX=0.5;entryY=0;entryDx=0;entryDy=0;endArrow=none;endFill=0;" parent="1" source="EGReewrqneR2WTqJuPq--17" target="HE2thZA_2mZJquEUhGNp-27" edge="1">
          <mxGeometry relative="1" as="geometry" />
        </mxCell>
        <mxCell id="EGReewrqneR2WTqJuPq--17" value="/edit" style="rounded=0;whiteSpace=wrap;html=1;fontSize=16;strokeColor=default;align=center;verticalAlign=middle;fontFamily=Helvetica;fontColor=#ffffff;fillColor=default;" parent="1" vertex="1">
          <mxGeometry x="2030" y="409" width="120" height="60" as="geometry" />
        </mxCell>
        <mxCell id="HE2thZA_2mZJquEUhGNp-27" value="Params" style="swimlane;fontStyle=0;childLayout=stackLayout;horizontal=1;startSize=30;horizontalStack=0;resizeParent=1;resizeParentMax=0;resizeLast=0;collapsible=1;marginBottom=0;whiteSpace=wrap;html=1;fontSize=16;" parent="1" vertex="1">
          <mxGeometry x="2005" y="569" width="170" height="120" as="geometry" />
        </mxCell>
        <mxCell id="HE2thZA_2mZJquEUhGNp-28" value="round: string" style="text;strokeColor=none;fillColor=none;align=left;verticalAlign=middle;spacingLeft=4;spacingRight=4;overflow=hidden;points=[[0,0.5],[1,0.5]];portConstraint=eastwest;rotatable=0;whiteSpace=wrap;html=1;fontSize=16;" parent="HE2thZA_2mZJquEUhGNp-27" vertex="1">
          <mxGeometry y="30" width="170" height="30" as="geometry" />
        </mxCell>
        <mxCell id="HE2thZA_2mZJquEUhGNp-29" value="map_code: string" style="text;strokeColor=none;fillColor=none;align=left;verticalAlign=middle;spacingLeft=4;spacingRight=4;overflow=hidden;points=[[0,0.5],[1,0.5]];portConstraint=eastwest;rotatable=0;whiteSpace=wrap;html=1;fontSize=16;" parent="HE2thZA_2mZJquEUhGNp-27" vertex="1">
          <mxGeometry y="60" width="170" height="30" as="geometry" />
        </mxCell>
        <mxCell id="HE2thZA_2mZJquEUhGNp-30" value="new_map_id: number" style="text;strokeColor=none;fillColor=none;align=left;verticalAlign=middle;spacingLeft=4;spacingRight=4;overflow=hidden;points=[[0,0.5],[1,0.5]];portConstraint=eastwest;rotatable=0;whiteSpace=wrap;html=1;fontSize=16;" parent="HE2thZA_2mZJquEUhGNp-27" vertex="1">
          <mxGeometry y="90" width="170" height="30" as="geometry" />
        </mxCell>
        <mxCell id="HE2thZA_2mZJquEUhGNp-134" value="" style="shape=ellipse;html=1;dashed=0;whiteSpace=wrap;aspect=fixed;perimeter=ellipsePerimeter;fillColor=#FFCCCC;fontSize=16;" parent="1" vertex="1">
          <mxGeometry x="1990" y="424" width="30" height="30" as="geometry" />
        </mxCell>
        <mxCell id="HE2thZA_2mZJquEUhGNp-84" style="edgeStyle=orthogonalEdgeStyle;rounded=0;orthogonalLoop=1;jettySize=auto;html=1;entryX=0.5;entryY=0;entryDx=0;entryDy=0;endArrow=none;endFill=0;" parent="1" source="EGReewrqneR2WTqJuPq--14" target="HE2thZA_2mZJquEUhGNp-23" edge="1">
          <mxGeometry relative="1" as="geometry" />
        </mxCell>
        <mxCell id="EGReewrqneR2WTqJuPq--14" value="/add" style="rounded=0;whiteSpace=wrap;html=1;fontSize=16;strokeColor=default;align=center;verticalAlign=middle;fontFamily=Helvetica;fontColor=#ffffff;fillColor=default;" parent="1" vertex="1">
          <mxGeometry x="1790" y="409" width="120" height="60" as="geometry" />
        </mxCell>
        <mxCell id="HE2thZA_2mZJquEUhGNp-23" value="Params" style="swimlane;fontStyle=0;childLayout=stackLayout;horizontal=1;startSize=30;horizontalStack=0;resizeParent=1;resizeParentMax=0;resizeLast=0;collapsible=1;marginBottom=0;whiteSpace=wrap;html=1;fontSize=16;" parent="1" vertex="1">
          <mxGeometry x="1780" y="569" width="140" height="120" as="geometry" />
        </mxCell>
        <mxCell id="HE2thZA_2mZJquEUhGNp-24" value="round: string" style="text;strokeColor=none;fillColor=none;align=left;verticalAlign=middle;spacingLeft=4;spacingRight=4;overflow=hidden;points=[[0,0.5],[1,0.5]];portConstraint=eastwest;rotatable=0;whiteSpace=wrap;html=1;fontSize=16;" parent="HE2thZA_2mZJquEUhGNp-23" vertex="1">
          <mxGeometry y="30" width="140" height="30" as="geometry" />
        </mxCell>
        <mxCell id="HE2thZA_2mZJquEUhGNp-25" value="map_code: string" style="text;strokeColor=none;fillColor=none;align=left;verticalAlign=middle;spacingLeft=4;spacingRight=4;overflow=hidden;points=[[0,0.5],[1,0.5]];portConstraint=eastwest;rotatable=0;whiteSpace=wrap;html=1;fontSize=16;" parent="HE2thZA_2mZJquEUhGNp-23" vertex="1">
          <mxGeometry y="60" width="140" height="30" as="geometry" />
        </mxCell>
        <mxCell id="HE2thZA_2mZJquEUhGNp-26" value="map_id: number" style="text;strokeColor=none;fillColor=none;align=left;verticalAlign=middle;spacingLeft=4;spacingRight=4;overflow=hidden;points=[[0,0.5],[1,0.5]];portConstraint=eastwest;rotatable=0;whiteSpace=wrap;html=1;fontSize=16;" parent="HE2thZA_2mZJquEUhGNp-23" vertex="1">
          <mxGeometry y="90" width="140" height="30" as="geometry" />
        </mxCell>
        <mxCell id="HE2thZA_2mZJquEUhGNp-189" value="" style="shape=ellipse;html=1;dashed=0;whiteSpace=wrap;aspect=fixed;perimeter=ellipsePerimeter;fillColor=#FFCCCC;fontSize=16;" parent="1" vertex="1">
          <mxGeometry x="1750" y="424" width="30" height="30" as="geometry" />
        </mxCell>
        <mxCell id="HE2thZA_2mZJquEUhGNp-83" style="edgeStyle=orthogonalEdgeStyle;rounded=0;orthogonalLoop=1;jettySize=auto;html=1;entryX=0.5;entryY=0;entryDx=0;entryDy=0;endArrow=none;endFill=0;" parent="1" source="EGReewrqneR2WTqJuPq--15" target="HE2thZA_2mZJquEUhGNp-20" edge="1">
          <mxGeometry relative="1" as="geometry" />
        </mxCell>
        <mxCell id="EGReewrqneR2WTqJuPq--15" value="/get" style="rounded=0;whiteSpace=wrap;html=1;fontSize=16;strokeColor=default;align=center;verticalAlign=middle;fontFamily=Helvetica;fontColor=#ffffff;fillColor=default;" parent="1" vertex="1">
          <mxGeometry x="1550" y="409" width="120" height="60" as="geometry" />
        </mxCell>
        <mxCell id="HE2thZA_2mZJquEUhGNp-20" value="Params" style="swimlane;fontStyle=0;childLayout=stackLayout;horizontal=1;startSize=30;horizontalStack=0;resizeParent=1;resizeParentMax=0;resizeLast=0;collapsible=1;marginBottom=0;whiteSpace=wrap;html=1;fontSize=16;" parent="1" vertex="1">
          <mxGeometry x="1540" y="569" width="140" height="90" as="geometry" />
        </mxCell>
        <mxCell id="HE2thZA_2mZJquEUhGNp-21" value="round: string" style="text;strokeColor=none;fillColor=none;align=left;verticalAlign=middle;spacingLeft=4;spacingRight=4;overflow=hidden;points=[[0,0.5],[1,0.5]];portConstraint=eastwest;rotatable=0;whiteSpace=wrap;html=1;fontSize=16;" parent="HE2thZA_2mZJquEUhGNp-20" vertex="1">
          <mxGeometry y="30" width="140" height="30" as="geometry" />
        </mxCell>
        <mxCell id="HE2thZA_2mZJquEUhGNp-22" value="map_code: string" style="text;strokeColor=none;fillColor=none;align=left;verticalAlign=middle;spacingLeft=4;spacingRight=4;overflow=hidden;points=[[0,0.5],[1,0.5]];portConstraint=eastwest;rotatable=0;whiteSpace=wrap;html=1;fontSize=16;" parent="HE2thZA_2mZJquEUhGNp-20" vertex="1">
          <mxGeometry y="60" width="140" height="30" as="geometry" />
        </mxCell>
        <mxCell id="OgWKlECrtsOPi22Th0ey-19" style="edgeStyle=orthogonalEdgeStyle;rounded=0;orthogonalLoop=1;jettySize=auto;html=1;entryX=0.5;entryY=1;entryDx=0;entryDy=0;endArrow=none;endFill=0;" parent="1" source="EGReewrqneR2WTqJuPq--91" target="OgWKlECrtsOPi22Th0ey-18" edge="1">
          <mxGeometry relative="1" as="geometry" />
        </mxCell>
        <mxCell id="EGReewrqneR2WTqJuPq--91" value="/set-reveal-time" style="rounded=1;whiteSpace=wrap;html=1;fontSize=16;strokeColor=default;align=center;verticalAlign=middle;fontFamily=Helvetica;fontColor=#000000;fillColor=#67AB9F;" parent="1" vertex="1">
          <mxGeometry x="3090" y="-1720" width="120" height="60" as="geometry" />
        </mxCell>
        <mxCell id="HE2thZA_2mZJquEUhGNp-1" value="generate a static page" style="whiteSpace=wrap;html=1;shape=mxgraph.basic.document;fillColor=#e3c800;fontColor=#000000;strokeColor=#B09500;fontSize=16;" parent="1" vertex="1">
          <mxGeometry x="2730" y="-1637.5" width="100" height="100" as="geometry" />
        </mxCell>
        <mxCell id="PJESGeksHoikqEn4IFh8-54" value="/help" style="rounded=1;whiteSpace=wrap;html=1;fontSize=16;strokeColor=default;align=center;verticalAlign=middle;fontFamily=Helvetica;fontColor=#000000;fillColor=#67AB9F;" parent="1" vertex="1">
          <mxGeometry x="2830" y="-1200" width="120" height="60" as="geometry" />
        </mxCell>
        <mxCell id="HE2thZA_2mZJquEUhGNp-98" style="edgeStyle=orthogonalEdgeStyle;rounded=0;orthogonalLoop=1;jettySize=auto;html=1;entryX=0.5;entryY=0;entryDx=0;entryDy=0;endArrow=none;endFill=0;" parent="1" source="EGReewrqneR2WTqJuPq--69" target="HE2thZA_2mZJquEUhGNp-72" edge="1">
          <mxGeometry relative="1" as="geometry" />
        </mxCell>
        <mxCell id="EGReewrqneR2WTqJuPq--69" value="/list" style="rounded=0;whiteSpace=wrap;html=1;fontSize=16;strokeColor=default;align=center;verticalAlign=middle;fontFamily=Helvetica;fontColor=#ffffff;fillColor=default;" parent="1" vertex="1">
          <mxGeometry x="3720" y="410" width="120" height="60" as="geometry" />
        </mxCell>
        <mxCell id="HE2thZA_2mZJquEUhGNp-72" value="Params" style="swimlane;fontStyle=0;childLayout=stackLayout;horizontal=1;startSize=30;horizontalStack=0;resizeParent=1;resizeParentMax=0;resizeLast=0;collapsible=1;marginBottom=0;whiteSpace=wrap;html=1;fontSize=16;" parent="1" vertex="1">
          <mxGeometry x="3710" y="570" width="140" height="60" as="geometry" />
        </mxCell>
        <mxCell id="RTCszzXy1HRlUXMrcxP8-62" style="edgeStyle=orthogonalEdgeStyle;shape=connector;rounded=0;orthogonalLoop=1;jettySize=auto;html=1;entryX=0.5;entryY=1;entryDx=0;entryDy=0;strokeColor=#67AB9F;align=center;verticalAlign=middle;fontFamily=Helvetica;fontSize=16;fontColor=default;labelBackgroundColor=default;endArrow=classic;endFill=1;" parent="1" source="PJESGeksHoikqEn4IFh8-56" target="RTCszzXy1HRlUXMrcxP8-60" edge="1">
          <mxGeometry relative="1" as="geometry" />
        </mxCell>
        <mxCell id="PJESGeksHoikqEn4IFh8-56" value="/login" style="rounded=1;whiteSpace=wrap;html=1;fontSize=16;fillColor=#67AB9F;strokeColor=default;align=center;verticalAlign=middle;fontFamily=Helvetica;fontColor=#000000;" parent="1" vertex="1">
          <mxGeometry x="3090" y="-1200" width="120" height="60" as="geometry" />
        </mxCell>
        <mxCell id="RTCszzXy1HRlUXMrcxP8-57" style="edgeStyle=orthogonalEdgeStyle;shape=connector;rounded=0;orthogonalLoop=1;jettySize=auto;html=1;exitX=0.25;exitY=1;exitDx=0;exitDy=0;exitPerimeter=0;entryX=0.5;entryY=0;entryDx=0;entryDy=0;strokeColor=#CC00CC;align=center;verticalAlign=middle;fontFamily=Helvetica;fontSize=11;fontColor=default;labelBackgroundColor=default;endArrow=none;endFill=0;" parent="1" source="EGReewrqneR2WTqJuPq--1" target="RTCszzXy1HRlUXMrcxP8-36" edge="1">
          <mxGeometry relative="1" as="geometry">
            <mxPoint x="3003" y="-760" as="sourcePoint" />
            <mxPoint x="1850" y="270" as="targetPoint" />
            <Array as="points">
              <mxPoint x="3002" y="140" />
              <mxPoint x="1100" y="140" />
            </Array>
          </mxGeometry>
        </mxCell>
        <mxCell id="RTCszzXy1HRlUXMrcxP8-33" style="edgeStyle=orthogonalEdgeStyle;rounded=0;orthogonalLoop=1;jettySize=auto;html=1;entryX=0.5;entryY=0;entryDx=0;entryDy=0;endArrow=none;endFill=0;" parent="1" source="RTCszzXy1HRlUXMrcxP8-36" target="RTCszzXy1HRlUXMrcxP8-54" edge="1">
          <mxGeometry relative="1" as="geometry" />
        </mxCell>
        <mxCell id="RTCszzXy1HRlUXMrcxP8-34" style="edgeStyle=orthogonalEdgeStyle;rounded=0;orthogonalLoop=1;jettySize=auto;html=1;entryX=0.5;entryY=0;entryDx=0;entryDy=0;endArrow=none;endFill=0;" parent="1" source="RTCszzXy1HRlUXMrcxP8-36" target="RTCszzXy1HRlUXMrcxP8-49" edge="1">
          <mxGeometry relative="1" as="geometry" />
        </mxCell>
        <mxCell id="RTCszzXy1HRlUXMrcxP8-35" style="edgeStyle=orthogonalEdgeStyle;rounded=0;orthogonalLoop=1;jettySize=auto;html=1;entryX=0.5;entryY=0;entryDx=0;entryDy=0;endArrow=none;endFill=0;" parent="1" source="RTCszzXy1HRlUXMrcxP8-36" target="RTCszzXy1HRlUXMrcxP8-44" edge="1">
          <mxGeometry relative="1" as="geometry" />
        </mxCell>
        <mxCell id="RTCszzXy1HRlUXMrcxP8-36" value="/mappool" style="rounded=1;whiteSpace=wrap;html=1;fontSize=16;fillColor=#CC00CC;" parent="1" vertex="1">
          <mxGeometry x="1040" y="269" width="120" height="60" as="geometry" />
        </mxCell>
        <mxCell id="RTCszzXy1HRlUXMrcxP8-37" value="&lt;font style=&quot;font-size: 22px;&quot;&gt;GET /mappool/:round&lt;/font&gt;" style="rounded=0;whiteSpace=wrap;html=1;fontSize=16;fillColor=#CCFFCC;fontColor=#000000;" parent="1" vertex="1">
          <mxGeometry x="770" y="958" width="180" height="90" as="geometry" />
        </mxCell>
        <mxCell id="RTCszzXy1HRlUXMrcxP8-38" value="&lt;font style=&quot;font-size: 22px;&quot;&gt;POST /mappool&lt;/font&gt;&lt;span style=&quot;font-size: 22px;&quot;&gt;/:round&lt;/span&gt;" style="rounded=0;whiteSpace=wrap;html=1;fontSize=16;fontColor=#000000;fillColor=#FFFFCC;strokeColor=default;align=center;verticalAlign=middle;fontFamily=Helvetica;" parent="1" vertex="1">
          <mxGeometry x="1010" y="959" width="180" height="90" as="geometry" />
        </mxCell>
        <mxCell id="RTCszzXy1HRlUXMrcxP8-39" value="&lt;font style=&quot;font-size: 22px;&quot;&gt;DELETE /mappool&lt;/font&gt;&lt;span style=&quot;font-size: 22px;&quot;&gt;/:round&amp;nbsp;&lt;/span&gt;" style="rounded=0;whiteSpace=wrap;html=1;fontSize=16;fillColor=#FFCCCC;fontColor=#000000;" parent="1" vertex="1">
          <mxGeometry x="1250" y="959" width="180" height="90" as="geometry" />
        </mxCell>
        <mxCell id="RTCszzXy1HRlUXMrcxP8-40" style="edgeStyle=orthogonalEdgeStyle;rounded=0;orthogonalLoop=1;jettySize=auto;html=1;entryX=0.5;entryY=0;entryDx=0;entryDy=0;flowAnimation=1;strokeColor=#CCFFE6;" parent="1" source="RTCszzXy1HRlUXMrcxP8-55" target="RTCszzXy1HRlUXMrcxP8-37" edge="1">
          <mxGeometry relative="1" as="geometry" />
        </mxCell>
        <mxCell id="RTCszzXy1HRlUXMrcxP8-41" style="edgeStyle=orthogonalEdgeStyle;rounded=0;orthogonalLoop=1;jettySize=auto;html=1;entryX=0.5;entryY=0;entryDx=0;entryDy=0;flowAnimation=1;fontColor=default;strokeColor=#FFFFCC;align=center;verticalAlign=middle;fontFamily=Helvetica;fontSize=11;labelBackgroundColor=default;endArrow=classic;" parent="1" source="RTCszzXy1HRlUXMrcxP8-50" target="RTCszzXy1HRlUXMrcxP8-38" edge="1">
          <mxGeometry relative="1" as="geometry" />
        </mxCell>
        <mxCell id="RTCszzXy1HRlUXMrcxP8-42" style="edgeStyle=orthogonalEdgeStyle;rounded=0;orthogonalLoop=1;jettySize=auto;html=1;entryX=0.5;entryY=0;entryDx=0;entryDy=0;flowAnimation=1;strokeColor=#FFCCCC;" parent="1" source="RTCszzXy1HRlUXMrcxP8-45" target="RTCszzXy1HRlUXMrcxP8-39" edge="1">
          <mxGeometry relative="1" as="geometry" />
        </mxCell>
        <mxCell id="RTCszzXy1HRlUXMrcxP8-43" style="edgeStyle=orthogonalEdgeStyle;rounded=0;orthogonalLoop=1;jettySize=auto;html=1;entryX=0.5;entryY=0;entryDx=0;entryDy=0;endArrow=none;endFill=0;" parent="1" source="RTCszzXy1HRlUXMrcxP8-44" target="RTCszzXy1HRlUXMrcxP8-45" edge="1">
          <mxGeometry relative="1" as="geometry" />
        </mxCell>
        <mxCell id="RTCszzXy1HRlUXMrcxP8-44" value="/delete" style="rounded=0;whiteSpace=wrap;html=1;fontSize=16;strokeColor=default;align=center;verticalAlign=middle;fontFamily=Helvetica;fontColor=#ffffff;fillColor=default;" parent="1" vertex="1">
          <mxGeometry x="1280" y="409" width="120" height="60" as="geometry" />
        </mxCell>
        <mxCell id="RTCszzXy1HRlUXMrcxP8-45" value="Params" style="swimlane;fontStyle=0;childLayout=stackLayout;horizontal=1;startSize=30;horizontalStack=0;resizeParent=1;resizeParentMax=0;resizeLast=0;collapsible=1;marginBottom=0;whiteSpace=wrap;html=1;fontSize=16;" parent="1" vertex="1">
          <mxGeometry x="1270" y="569" width="140" height="60" as="geometry" />
        </mxCell>
        <mxCell id="RTCszzXy1HRlUXMrcxP8-46" value="round: string" style="text;strokeColor=none;fillColor=none;align=left;verticalAlign=middle;spacingLeft=4;spacingRight=4;overflow=hidden;points=[[0,0.5],[1,0.5]];portConstraint=eastwest;rotatable=0;whiteSpace=wrap;html=1;fontSize=16;" parent="RTCszzXy1HRlUXMrcxP8-45" vertex="1">
          <mxGeometry y="30" width="140" height="30" as="geometry" />
        </mxCell>
        <mxCell id="RTCszzXy1HRlUXMrcxP8-47" value="" style="shape=ellipse;html=1;dashed=0;whiteSpace=wrap;aspect=fixed;perimeter=ellipsePerimeter;fillColor=#FFCCCC;fontSize=16;" parent="1" vertex="1">
          <mxGeometry x="1240" y="424" width="30" height="30" as="geometry" />
        </mxCell>
        <mxCell id="RTCszzXy1HRlUXMrcxP8-48" style="edgeStyle=orthogonalEdgeStyle;rounded=0;orthogonalLoop=1;jettySize=auto;html=1;entryX=0.5;entryY=0;entryDx=0;entryDy=0;endArrow=none;endFill=0;" parent="1" source="RTCszzXy1HRlUXMrcxP8-49" target="RTCszzXy1HRlUXMrcxP8-50" edge="1">
          <mxGeometry relative="1" as="geometry" />
        </mxCell>
        <mxCell id="RTCszzXy1HRlUXMrcxP8-49" value="/create" style="rounded=0;whiteSpace=wrap;html=1;fontSize=16;strokeColor=default;align=center;verticalAlign=middle;fontFamily=Helvetica;fontColor=#ffffff;fillColor=default;" parent="1" vertex="1">
          <mxGeometry x="1040" y="409" width="120" height="60" as="geometry" />
        </mxCell>
        <mxCell id="RTCszzXy1HRlUXMrcxP8-50" value="Params" style="swimlane;fontStyle=0;childLayout=stackLayout;horizontal=1;startSize=30;horizontalStack=0;resizeParent=1;resizeParentMax=0;resizeLast=0;collapsible=1;marginBottom=0;whiteSpace=wrap;html=1;fontSize=16;" parent="1" vertex="1">
          <mxGeometry x="1030" y="569" width="140" height="60" as="geometry" />
        </mxCell>
        <mxCell id="RTCszzXy1HRlUXMrcxP8-51" value="round: string" style="text;strokeColor=none;fillColor=none;align=left;verticalAlign=middle;spacingLeft=4;spacingRight=4;overflow=hidden;points=[[0,0.5],[1,0.5]];portConstraint=eastwest;rotatable=0;whiteSpace=wrap;html=1;fontSize=16;" parent="RTCszzXy1HRlUXMrcxP8-50" vertex="1">
          <mxGeometry y="30" width="140" height="30" as="geometry" />
        </mxCell>
        <mxCell id="RTCszzXy1HRlUXMrcxP8-52" value="" style="shape=ellipse;html=1;dashed=0;whiteSpace=wrap;aspect=fixed;perimeter=ellipsePerimeter;fillColor=#FFCCCC;fontSize=16;" parent="1" vertex="1">
          <mxGeometry x="1000" y="424" width="30" height="30" as="geometry" />
        </mxCell>
        <mxCell id="RTCszzXy1HRlUXMrcxP8-53" style="edgeStyle=orthogonalEdgeStyle;rounded=0;orthogonalLoop=1;jettySize=auto;html=1;entryX=0.5;entryY=0;entryDx=0;entryDy=0;endArrow=none;endFill=0;" parent="1" source="RTCszzXy1HRlUXMrcxP8-54" target="RTCszzXy1HRlUXMrcxP8-55" edge="1">
          <mxGeometry relative="1" as="geometry" />
        </mxCell>
        <mxCell id="RTCszzXy1HRlUXMrcxP8-54" value="/get" style="rounded=0;whiteSpace=wrap;html=1;fontSize=16;strokeColor=default;align=center;verticalAlign=middle;fontFamily=Helvetica;fontColor=#ffffff;fillColor=default;" parent="1" vertex="1">
          <mxGeometry x="800" y="409" width="120" height="60" as="geometry" />
        </mxCell>
        <mxCell id="RTCszzXy1HRlUXMrcxP8-55" value="Params" style="swimlane;fontStyle=0;childLayout=stackLayout;horizontal=1;startSize=30;horizontalStack=0;resizeParent=1;resizeParentMax=0;resizeLast=0;collapsible=1;marginBottom=0;whiteSpace=wrap;html=1;fontSize=16;" parent="1" vertex="1">
          <mxGeometry x="790" y="569" width="140" height="60" as="geometry" />
        </mxCell>
        <mxCell id="RTCszzXy1HRlUXMrcxP8-56" value="round: string" style="text;strokeColor=none;fillColor=none;align=left;verticalAlign=middle;spacingLeft=4;spacingRight=4;overflow=hidden;points=[[0,0.5],[1,0.5]];portConstraint=eastwest;rotatable=0;whiteSpace=wrap;html=1;fontSize=16;" parent="RTCszzXy1HRlUXMrcxP8-55" vertex="1">
          <mxGeometry y="30" width="140" height="30" as="geometry" />
        </mxCell>
        <mxCell id="RTCszzXy1HRlUXMrcxP8-60" value="" style="shape=image;verticalLabelPosition=bottom;labelBackgroundColor=default;verticalAlign=top;aspect=fixed;imageAspect=0;image=https://upload.wikimedia.org/wikipedia/commons/thumb/1/1e/Osu%21_Logo_2016.svg/1024px-Osu%21_Logo_2016.svg.png;" parent="1" vertex="1">
          <mxGeometry x="3108" y="-1401.5" width="84" height="84" as="geometry" />
        </mxCell>
        <mxCell id="OgWKlECrtsOPi22Th0ey-4" style="edgeStyle=orthogonalEdgeStyle;rounded=0;orthogonalLoop=1;jettySize=auto;html=1;entryX=0.5;entryY=0;entryDx=0;entryDy=0;endArrow=none;endFill=0;" parent="1" source="OgWKlECrtsOPi22Th0ey-2" target="OgWKlECrtsOPi22Th0ey-3" edge="1">
          <mxGeometry relative="1" as="geometry" />
        </mxCell>
        <mxCell id="OgWKlECrtsOPi22Th0ey-2" value="/create-tourney" style="rounded=1;whiteSpace=wrap;html=1;fontSize=16;strokeColor=#36393d;align=center;verticalAlign=middle;fontFamily=Helvetica;fillColor=#99004D;" parent="1" vertex="1">
          <mxGeometry x="2965" y="270" width="120" height="60" as="geometry" />
        </mxCell>
        <mxCell id="OgWKlECrtsOPi22Th0ey-7" style="edgeStyle=orthogonalEdgeStyle;rounded=0;orthogonalLoop=1;jettySize=auto;html=1;endArrow=classic;endFill=1;flowAnimation=1;" parent="1" source="OgWKlECrtsOPi22Th0ey-3" target="OgWKlECrtsOPi22Th0ey-6" edge="1">
          <mxGeometry relative="1" as="geometry" />
        </mxCell>
        <mxCell id="OgWKlECrtsOPi22Th0ey-3" value="Params" style="swimlane;fontStyle=0;childLayout=stackLayout;horizontal=1;startSize=30;horizontalStack=0;resizeParent=1;resizeParentMax=0;resizeLast=0;collapsible=1;marginBottom=0;whiteSpace=wrap;html=1;fontSize=16;" parent="1" vertex="1">
          <mxGeometry x="2955" y="570" width="140" height="90" as="geometry" />
        </mxCell>
        <mxCell id="OgWKlECrtsOPi22Th0ey-5" value="abbr: string" style="text;strokeColor=none;fillColor=none;align=left;verticalAlign=middle;spacingLeft=4;spacingRight=4;overflow=hidden;points=[[0,0.5],[1,0.5]];portConstraint=eastwest;rotatable=0;whiteSpace=wrap;html=1;fontSize=16;" parent="OgWKlECrtsOPi22Th0ey-3" vertex="1">
          <mxGeometry y="30" width="140" height="30" as="geometry" />
        </mxCell>
        <mxCell id="1GDkTNYrjNBcU1FDr1Ky-1" value="top_cut: number" style="text;strokeColor=none;fillColor=none;align=left;verticalAlign=middle;spacingLeft=4;spacingRight=4;overflow=hidden;points=[[0,0.5],[1,0.5]];portConstraint=eastwest;rotatable=0;whiteSpace=wrap;html=1;fontSize=16;" parent="OgWKlECrtsOPi22Th0ey-3" vertex="1">
          <mxGeometry y="60" width="140" height="30" as="geometry" />
        </mxCell>
        <mxCell id="OgWKlECrtsOPi22Th0ey-6" value="&lt;font style=&quot;font-size: 22px;&quot;&gt;POST /tournament/:year&lt;/font&gt;" style="rounded=0;whiteSpace=wrap;html=1;fontSize=16;fontColor=#000000;fillColor=#FFFFCC;strokeColor=default;align=center;verticalAlign=middle;fontFamily=Helvetica;" parent="1" vertex="1">
          <mxGeometry x="2935" y="958" width="180" height="90" as="geometry" />
        </mxCell>
        <mxCell id="OgWKlECrtsOPi22Th0ey-22" style="edgeStyle=orthogonalEdgeStyle;rounded=0;orthogonalLoop=1;jettySize=auto;html=1;entryX=0.5;entryY=1;entryDx=0;entryDy=0;" parent="1" source="OgWKlECrtsOPi22Th0ey-9" target="OgWKlECrtsOPi22Th0ey-21" edge="1">
          <mxGeometry relative="1" as="geometry" />
        </mxCell>
        <mxCell id="OgWKlECrtsOPi22Th0ey-9" value="/stats" style="rounded=1;whiteSpace=wrap;html=1;fontSize=16;strokeColor=default;align=center;verticalAlign=middle;fontFamily=Helvetica;fontColor=#000000;fillColor=#67AB9F;" parent="1" vertex="1">
          <mxGeometry x="2830" y="-1720" width="120" height="60" as="geometry" />
        </mxCell>
        <mxCell id="OgWKlECrtsOPi22Th0ey-11" value="" style="shape=ellipse;html=1;dashed=0;whiteSpace=wrap;aspect=fixed;perimeter=ellipsePerimeter;fillColor=#FFCCCC;fontSize=16;container=0;" parent="1" vertex="1">
          <mxGeometry x="3050" y="-1705" width="30" height="30" as="geometry" />
        </mxCell>
        <mxCell id="OgWKlECrtsOPi22Th0ey-12" value="" style="shape=ellipse;html=1;dashed=0;whiteSpace=wrap;aspect=fixed;perimeter=ellipsePerimeter;fillColor=#FFCCCC;fontSize=16;" parent="1" vertex="1">
          <mxGeometry x="2920" y="285" width="30" height="30" as="geometry" />
        </mxCell>
        <mxCell id="OgWKlECrtsOPi22Th0ey-14" value="host only" style="whiteSpace=wrap;html=1;shape=mxgraph.basic.document;fillColor=#e3c800;fontColor=#000000;strokeColor=#B09500;fontSize=16;" parent="1" vertex="1">
          <mxGeometry x="3210" y="-1640" width="100" height="100" as="geometry" />
        </mxCell>
        <mxCell id="OgWKlECrtsOPi22Th0ey-15" value="&lt;font style=&quot;font-size: 22px;&quot;&gt;PUT /stats/time&lt;/font&gt;" style="rounded=0;whiteSpace=wrap;html=1;fontSize=16;fillColor=#99FFFF;fontColor=#000000;strokeColor=default;align=center;verticalAlign=middle;fontFamily=Helvetica;" parent="1" vertex="1">
          <mxGeometry x="3060" y="-2250" width="180" height="90" as="geometry" />
        </mxCell>
        <mxCell id="OgWKlECrtsOPi22Th0ey-20" style="edgeStyle=orthogonalEdgeStyle;rounded=0;orthogonalLoop=1;jettySize=auto;html=1;entryX=0.5;entryY=1;entryDx=0;entryDy=0;flowAnimation=1;strokeColor=#99FFFF;align=center;verticalAlign=middle;fontFamily=Helvetica;fontSize=11;fontColor=#000000;labelBackgroundColor=default;endArrow=classic;" parent="1" source="OgWKlECrtsOPi22Th0ey-18" target="OgWKlECrtsOPi22Th0ey-15" edge="1">
          <mxGeometry relative="1" as="geometry" />
        </mxCell>
        <mxCell id="OgWKlECrtsOPi22Th0ey-18" value="Params" style="swimlane;fontStyle=0;childLayout=stackLayout;horizontal=1;startSize=30;horizontalStack=0;resizeParent=1;resizeParentMax=0;resizeLast=0;collapsible=1;marginBottom=0;whiteSpace=wrap;html=1;fontSize=16;" parent="1" vertex="1">
          <mxGeometry x="3080" y="-1970" width="140" height="180" as="geometry" />
        </mxCell>
        <mxCell id="-d9S9vMfLmMUD7XQ1lsK-16" value="hour: number" style="text;strokeColor=none;fillColor=none;align=left;verticalAlign=middle;spacingLeft=4;spacingRight=4;overflow=hidden;points=[[0,0.5],[1,0.5]];portConstraint=eastwest;rotatable=0;whiteSpace=wrap;html=1;fontSize=16;" parent="OgWKlECrtsOPi22Th0ey-18" vertex="1">
          <mxGeometry y="30" width="140" height="30" as="geometry" />
        </mxCell>
        <mxCell id="-d9S9vMfLmMUD7XQ1lsK-17" value="minute: number" style="text;strokeColor=none;fillColor=none;align=left;verticalAlign=middle;spacingLeft=4;spacingRight=4;overflow=hidden;points=[[0,0.5],[1,0.5]];portConstraint=eastwest;rotatable=0;whiteSpace=wrap;html=1;fontSize=16;" parent="OgWKlECrtsOPi22Th0ey-18" vertex="1">
          <mxGeometry y="60" width="140" height="30" as="geometry" />
        </mxCell>
        <mxCell id="-d9S9vMfLmMUD7XQ1lsK-18" value="day: number" style="text;strokeColor=none;fillColor=none;align=left;verticalAlign=middle;spacingLeft=4;spacingRight=4;overflow=hidden;points=[[0,0.5],[1,0.5]];portConstraint=eastwest;rotatable=0;whiteSpace=wrap;html=1;fontSize=16;" parent="OgWKlECrtsOPi22Th0ey-18" vertex="1">
          <mxGeometry y="90" width="140" height="30" as="geometry" />
        </mxCell>
        <mxCell id="-d9S9vMfLmMUD7XQ1lsK-20" value="month: number" style="text;strokeColor=none;fillColor=none;align=left;verticalAlign=middle;spacingLeft=4;spacingRight=4;overflow=hidden;points=[[0,0.5],[1,0.5]];portConstraint=eastwest;rotatable=0;whiteSpace=wrap;html=1;fontSize=16;" parent="OgWKlECrtsOPi22Th0ey-18" vertex="1">
          <mxGeometry y="120" width="140" height="30" as="geometry" />
        </mxCell>
        <mxCell id="-d9S9vMfLmMUD7XQ1lsK-19" value="year: number" style="text;strokeColor=none;fillColor=none;align=left;verticalAlign=middle;spacingLeft=4;spacingRight=4;overflow=hidden;points=[[0,0.5],[1,0.5]];portConstraint=eastwest;rotatable=0;whiteSpace=wrap;html=1;fontSize=16;" parent="OgWKlECrtsOPi22Th0ey-18" vertex="1">
          <mxGeometry y="150" width="140" height="30" as="geometry" />
        </mxCell>
        <mxCell id="OgWKlECrtsOPi22Th0ey-24" style="edgeStyle=orthogonalEdgeStyle;rounded=0;orthogonalLoop=1;jettySize=auto;html=1;strokeColor=#CCFFE6;align=center;verticalAlign=middle;fontFamily=Helvetica;fontSize=11;fontColor=default;labelBackgroundColor=default;endArrow=classic;flowAnimation=1;" parent="1" source="OgWKlECrtsOPi22Th0ey-21" target="OgWKlECrtsOPi22Th0ey-23" edge="1">
          <mxGeometry relative="1" as="geometry">
            <Array as="points">
              <mxPoint x="2890" y="-2080" />
              <mxPoint x="2890" y="-2080" />
            </Array>
          </mxGeometry>
        </mxCell>
        <mxCell id="OgWKlECrtsOPi22Th0ey-21" value="Params" style="swimlane;fontStyle=0;childLayout=stackLayout;horizontal=1;startSize=30;horizontalStack=0;resizeParent=1;resizeParentMax=0;resizeLast=0;collapsible=1;marginBottom=0;whiteSpace=wrap;html=1;fontSize=16;" parent="1" vertex="1">
          <mxGeometry x="2820" y="-1970" width="140" height="60" as="geometry" />
        </mxCell>
        <mxCell id="OgWKlECrtsOPi22Th0ey-25" value="round: string" style="text;strokeColor=none;fillColor=none;align=left;verticalAlign=middle;spacingLeft=4;spacingRight=4;overflow=hidden;points=[[0,0.5],[1,0.5]];portConstraint=eastwest;rotatable=0;whiteSpace=wrap;html=1;fontSize=16;" parent="OgWKlECrtsOPi22Th0ey-21" vertex="1">
          <mxGeometry y="30" width="140" height="30" as="geometry" />
        </mxCell>
        <mxCell id="OgWKlECrtsOPi22Th0ey-23" value="&lt;font style=&quot;font-size: 22px;&quot;&gt;GET /stats/:round&lt;/font&gt;" style="rounded=0;whiteSpace=wrap;html=1;fontSize=16;fillColor=#CCFFCC;fontColor=#000000;strokeColor=default;align=center;verticalAlign=middle;fontFamily=Helvetica;" parent="1" vertex="1">
          <mxGeometry x="2800" y="-2250" width="180" height="90" as="geometry" />
        </mxCell>
        <mxCell id="OgWKlECrtsOPi22Th0ey-26" value="host only" style="whiteSpace=wrap;html=1;shape=mxgraph.basic.document;fillColor=#e3c800;fontColor=#000000;strokeColor=#B09500;fontSize=16;" parent="1" vertex="1">
          <mxGeometry x="3095" y="330" width="100" height="100" as="geometry" />
        </mxCell>
      </root>
    </mxGraphModel>
  </diagram>
</mxfile>
